<svg xmlns="http://www.w3.org/2000/svg" width="316" height="500" fill="none" viewBox="0 0 316 500"><path fill="#1049B3" d="m226.909 281.894 5.887-12.299-25.772-14.887a40.835 40.835 0 0 0-9.72-4.072 41.901 41.901 0 0 0-3.6-.784c-5.675-.976-11.732-.849-18.127.487a61.459 61.459 0 0 0-6.544 1.76 63.836 63.836 0 0 0-6.755 2.609c-2.859 1.251-5.739 2.735-8.683 4.453a99.069 99.069 0 0 0-9.042 5.959 123.204 123.204 0 0 0-6.629 5.217c-31.998 27.038-57.156 75.239-63.551 121.596a160.56 160.56 0 0 0-1.038 9.437 148.686 148.686 0 0 0-.55 13.317c.02 3.605.148 7.083.423 10.434.233 2.905.572 5.726.974 8.44a105.11 105.11 0 0 0 1.525 7.846v.021c1.758 7.529 4.299 14.166 7.475 19.871.7 1.23 1.398 2.417 2.16 3.562 3.262 5.005 7.095 9.14 11.415 12.364a40.887 40.887 0 0 0 4.193 2.756l24.353 14.081 5.4-11.26c1.44-.318 2.88-.7 4.341-1.124 5.464-1.633 11.139-4.135 16.963-7.528a106.654 106.654 0 0 0 9.953-6.617A129.2 129.2 0 0 0 174.2 457.1c26.704-25.723 47.733-65.994 55.441-106.052a179.513 179.513 0 0 0 2.52-17.792c.445-4.92.657-9.798.657-14.612-.022-7.422-.615-14.356-1.695-20.718-1.016-5.832-2.435-11.176-4.214-16.032Z"/><path fill="#fff" d="m80.239 364.492 52.285 30.24 6.883-19.912-52.328-30.262c-2.605 6.532-4.913 13.212-6.84 19.934ZM207.024 254.687a40.794 40.794 0 0 0-9.72-4.072 41.906 41.906 0 0 0-3.6-.785c-5.675-.975-11.732-.848-18.127.488-.784.17-1.589.361-2.393.573L226.973 282c-.021-.042-.021-.085-.043-.127l5.888-12.3-25.794-14.886ZM201.412 331.156l6.883-8.291-78.397-45.191a142.242 142.242 0 0 0-7.306 7.783l78.82 45.699ZM105.947 307.66l67.914 39.274 7.476-19.574-63.234-36.58c-4.278 5.28-8.344 10.942-12.156 16.88Z" opacity=".25"/><path fill="#fff" d="M207.024 254.687a40.794 40.794 0 0 0-9.72-4.072 41.906 41.906 0 0 0-3.6-.785c-5.675-.975-11.732-.848-18.127.488a61.222 61.222 0 0 0-6.544 1.76 63.62 63.62 0 0 0-6.755 2.609c-2.859 1.251-5.739 2.735-8.683 4.453a99.069 99.069 0 0 0-9.042 5.959 123.204 123.204 0 0 0-6.629 5.217c-29.795 25.193-53.662 68.729-61.963 112.032l109.082 63.067c21.473-25.384 37.97-59.971 44.598-94.431a179.513 179.513 0 0 0 2.52-17.792c.445-4.92.657-9.797.657-14.611-.022-7.422-.615-14.357-1.695-20.719-.974-5.789-2.393-11.133-4.193-16.01l5.888-12.3-25.794-14.865Z" opacity=".4"/><path fill="#000" d="m125.303 494.062 5.4-11.26c1.44-.318 2.88-.7 4.341-1.124 5.464-1.633 11.139-4.135 16.963-7.528a106.654 106.654 0 0 0 9.953-6.617A129.2 129.2 0 0 0 174.2 457.1c3.727-3.605 7.349-7.507 10.843-11.642L75.961 382.39a187.405 187.405 0 0 0-1.588 9.564c-.445 3.16-.784 6.299-1.038 9.437a148.708 148.708 0 0 0-.55 13.318c.02 3.605.148 7.082.423 10.433.233 2.905.572 5.726.974 8.44a105.01 105.01 0 0 0 1.525 7.846v.022c1.758 7.528 4.299 14.165 7.475 19.87.7 1.23 1.398 2.417 2.16 3.563 3.262 5.004 7.095 9.139 11.415 12.363a40.732 40.732 0 0 0 4.193 2.757l24.353 14.059Z" opacity=".1"/><path fill="#000" d="M83.182 461.299c.7 1.23 1.398 2.417 2.16 3.562 3.262 5.005 7.094 9.14 11.415 12.364a40.878 40.878 0 0 0 4.193 2.756l24.353 14.081 5.4-11.26a.762.762 0 0 1 .212-.043l.381-4.623-54.17-31.342c1.61 5.344 3.642 10.179 6.056 14.505Z" opacity=".1"/><path fill="#427BE8" d="M258.653 313.809c-1.292-7.676-3.346-14.547-6.035-20.57-3.96-8.949-9.339-15.989-15.819-20.951a40.589 40.589 0 0 0-14.21-7.041 41.901 41.901 0 0 0-3.6-.784c-5.675-.976-11.732-.849-18.148.487a61.459 61.459 0 0 0-6.544 1.76 63.836 63.836 0 0 0-6.755 2.609c-2.859 1.251-5.739 2.735-8.683 4.453a98.931 98.931 0 0 0-9.042 5.959 115.081 115.081 0 0 0-6.629 5.217c-31.998 27.038-57.156 75.239-63.551 121.596a160.56 160.56 0 0 0-1.038 9.437 148.648 148.648 0 0 0-.55 13.317c.02 3.606.148 7.083.423 10.434.233 2.905.572 5.726.974 8.44.424 2.714.932 5.323 1.525 7.846v.022c1.758 7.528 4.299 14.165 7.475 19.87.699 1.23 1.398 2.417 2.16 3.562 3.262 5.005 7.095 9.14 11.415 12.364 6.522 4.877 14.146 7.655 22.532 8.1 5.675.318 11.71-.445 18.021-2.354 5.464-1.632 11.139-4.135 16.963-7.528a106.443 106.443 0 0 0 9.953-6.616 129.213 129.213 0 0 0 12.24-10.434c26.704-25.723 47.732-65.993 55.441-106.052a180.065 180.065 0 0 0 2.52-17.792c.445-4.92.656-9.797.656-14.611-.021-7.422-.614-14.356-1.694-20.74Z"/><path fill="#000" d="M101.246 396.917c-.614 3.202-1.164 6.425-1.588 9.627a160.56 160.56 0 0 0-1.038 9.437 148.648 148.648 0 0 0-.55 13.317c.02 3.606.148 7.083.423 10.434.233 2.905.572 5.726.974 8.44.424 2.714.932 5.323 1.525 7.846 1.758 7.528 4.299 14.166 7.476 19.892.698 1.23 1.397 2.417 2.16 3.562 3.261 5.005 7.094 9.14 11.414 12.364 6.522 4.877 14.146 7.655 22.532 8.1 5.675.318 11.711-.445 18.021-2.354 5.464-1.632 11.139-4.135 16.963-7.528 3.007-1.76 5.951-3.732 8.852-5.853l-87.164-87.284Z" opacity=".05"/><path fill="#000" d="M102.496 461.638c1.588 5.259 3.6 10.03 5.971 14.272.699 1.23 1.398 2.417 2.16 3.562 3.262 5.005 7.095 9.14 11.415 12.364 5.379 4.029 11.52 6.616 18.233 7.634l-37.779-37.832Z" opacity=".05"/><path fill="#fff" d="M112.322 359.212a216.506 216.506 0 0 0-6.819 19.934l94.935 95.067c.424-.403.868-.806 1.292-1.209 4.024-3.88 7.899-8.122 11.626-12.596L112.322 359.212ZM143.367 305.412c-4.278 5.28-8.344 10.942-12.156 16.88l104.487 104.631a221.14 221.14 0 0 0 9.296-19.743L143.367 305.412ZM155.226 292.264a144.997 144.997 0 0 0-7.37 7.846l99.912 100.051c1.398-3.753 2.711-7.507 3.897-11.324l-96.439-96.573ZM260.114 327.318a122.08 122.08 0 0 0-.444-5.683c-.064-.615-.127-1.252-.191-1.845-.063-.637-.148-1.252-.233-1.888-.19-1.378-.381-2.735-.593-4.071-1.292-7.677-3.346-14.548-6.035-20.57-3.96-8.949-9.339-15.99-15.819-20.952a40.589 40.589 0 0 0-14.21-7.041 41.901 41.901 0 0 0-3.6-.784c-5.675-.976-11.732-.848-18.148.488-.805.169-1.61.381-2.415.572l61.688 61.774Z" opacity=".1"/><path fill="#CAE2FF" d="M227.312 347.103c.063-1.399.084-2.778.084-4.156 0-8.461-1.016-16.032-2.901-22.564-2.626-9.055-6.904-16.116-12.431-20.888-1.292-.445-2.626-.827-4.002-1.081-7.137-1.379-15.226-.212-23.888 3.817-.36.148-.72.339-1.08.509a70.352 70.352 0 0 0-3.875 2.078 73.817 73.817 0 0 0-4.532 2.863c-3.155 2.142-6.226 4.58-9.212 7.295-20.859 18.873-37.271 50.28-42.374 81.071a117.038 117.038 0 0 0-1.462 13.148 100.998 100.998 0 0 0-.169 6.171c0 2.227.063 4.39.212 6.489.72 11.133 3.367 20.443 7.475 27.589 2.16 3.733 4.701 6.871 7.603 9.374 4.489 1.569 9.444 2.035 14.717 1.314 5.697-.784 11.817-2.947 18.149-6.616a52.817 52.817 0 0 0 3.092-1.909c.275-.169.529-.339.783-.53 29.076-19.425 52.286-64.106 53.811-103.974Z"/><path fill="#104DBF" d="M227.312 347.103c.063-1.399.084-2.778.084-4.156 0-8.461-1.016-16.032-2.901-22.564-2.626-9.055-6.904-16.116-12.431-20.888-1.292-.445-2.626-.827-4.002-1.081-7.137-1.379-15.226-.212-23.888 3.817-.36.148-.72.339-1.08.509a70.352 70.352 0 0 0-3.875 2.078 73.817 73.817 0 0 0-4.532 2.863c-3.155 2.142-6.226 4.58-9.212 7.295-20.859 18.873-37.271 50.28-42.374 81.071a117.038 117.038 0 0 0-1.462 13.148 100.998 100.998 0 0 0-.169 6.171c0 2.227.063 4.39.212 6.489.72 11.133 3.367 20.443 7.475 27.589 2.16 3.733 4.701 6.871 7.603 9.374 4.489 1.569 9.444 2.035 14.717 1.314 5.697-.784 11.817-2.947 18.149-6.616a52.817 52.817 0 0 0 3.092-1.909c.275-.169.529-.339.783-.53 29.076-19.425 52.286-64.106 53.811-103.974Z" opacity=".25"/><path fill="#427BE8" d="M183.264 299.008a62.582 62.582 0 0 0-4.066 2.163c-33.396 19.318-60.439 71.104-60.439 115.679 0 44.597 27.064 65.082 60.439 45.785a80.917 80.917 0 0 0 4.066-2.524c31.511-21.015 56.415-70.383 56.415-113.156 0-42.773-24.904-63.364-56.415-47.947Zm-9.784 152.048c-.275.17-.508.361-.783.509a68.107 68.107 0 0 1-3.092 1.909c-6.332 3.689-12.452 5.831-18.149 6.616-5.294.742-10.228.254-14.718-1.315-2.901-2.523-5.442-5.662-7.602-9.373-4.108-7.147-6.777-16.456-7.475-27.589a91.824 91.824 0 0 1-.212-6.489c0-2.036.063-4.093.169-6.171.254-4.348.72-8.759 1.461-13.148 5.104-30.792 21.516-62.219 42.375-81.072 2.986-2.714 6.057-5.153 9.212-7.295a80.77 80.77 0 0 1 4.532-2.862 57.569 57.569 0 0 1 3.875-2.057c.381-.17.741-.361 1.08-.509 8.662-4.03 16.751-5.196 23.909-3.817 1.355.275 2.711.615 3.981 1.081 5.527 4.793 9.826 11.833 12.452 20.888 1.885 6.532 2.901 14.102 2.901 22.564 0 1.378-.021 2.778-.084 4.177-1.546 39.868-24.714 84.549-53.832 103.953Z"/><path fill="#000" d="M183.264 299.008a62.582 62.582 0 0 0-4.066 2.163c-33.396 19.318-60.439 71.104-60.439 115.679 0 44.597 27.064 65.082 60.439 45.785a80.917 80.917 0 0 0 4.066-2.524c31.511-21.015 56.415-70.383 56.415-113.156 0-42.773-24.904-63.364-56.415-47.947Zm-9.784 152.048c-.275.17-.508.361-.783.509a68.107 68.107 0 0 1-3.092 1.909c-6.332 3.689-12.452 5.831-18.149 6.616-5.294.742-10.228.254-14.718-1.315-2.901-2.523-5.442-5.662-7.602-9.373-4.108-7.147-6.777-16.456-7.475-27.589a91.824 91.824 0 0 1-.212-6.489c0-2.036.063-4.093.169-6.171.254-4.348.72-8.759 1.461-13.148 5.104-30.792 21.516-62.219 42.375-81.072 2.986-2.714 6.057-5.153 9.212-7.295a80.77 80.77 0 0 1 4.532-2.862 57.569 57.569 0 0 1 3.875-2.057c.381-.17.741-.361 1.08-.509 8.662-4.03 16.751-5.196 23.909-3.817 1.355.275 2.711.615 3.981 1.081 5.527 4.793 9.826 11.833 12.452 20.888 1.885 6.532 2.901 14.102 2.901 22.564 0 1.378-.021 2.778-.084 4.177-1.546 39.868-24.714 84.549-53.832 103.953Z" opacity=".4"/><path fill="#427BE8" d="M236.968 348.524c0 1.378-.021 2.778-.084 4.178-1.525 39.867-24.714 84.549-53.832 103.952-.275.17-.508.34-.783.509a67.222 67.222 0 0 1-3.092 1.909c-6.332 3.669-12.452 5.832-18.149 6.616-9.381 1.294-17.703-1.166-24.268-6.87 4.468 1.526 9.402 2.014 14.675 1.293 5.718-.785 11.817-2.926 18.149-6.616a67.766 67.766 0 0 0 3.092-1.909c.275-.148.508-.339.783-.509 29.118-19.403 52.286-64.085 53.832-103.953.063-1.399.084-2.799.084-4.177 0-8.461-1.016-16.032-2.901-22.564-2.605-9.055-6.904-16.095-12.452-20.888 10.207 3.499 18.043 12.703 22.024 26.466 1.906 6.531 2.922 14.102 2.922 22.563Z"/><path fill="#000" d="M136.781 458.796c-.021-.021-.021-.021-.042-.021a5.117 5.117 0 0 1-.488-.466c.17.212.339.36.53.487Z" opacity=".25"/><path fill="#000" d="M236.968 348.524c0 1.378-.021 2.778-.084 4.178-1.525 39.867-24.714 84.549-53.832 103.952-.275.17-.508.34-.783.509a67.222 67.222 0 0 1-3.092 1.909c-6.332 3.669-12.452 5.832-18.149 6.616-9.381 1.294-17.703-1.166-24.268-6.87 4.468 1.526 9.402 2.014 14.675 1.293 5.718-.785 11.817-2.926 18.149-6.616a67.766 67.766 0 0 0 3.092-1.909c.275-.148.508-.339.783-.509 29.118-19.403 52.286-64.085 53.832-103.953.063-1.399.084-2.799.084-4.177 0-8.461-1.016-16.032-2.901-22.564-2.605-9.055-6.904-16.095-12.452-20.888 10.207 3.499 18.043 12.703 22.024 26.466 1.906 6.531 2.922 14.102 2.922 22.563Z" opacity=".5"/><path fill="#427BE8" d="m230.615 322.886-8.767-5.069-27.339 15.799v14.123l8.216 4.729v48.499l8.768 5.068 10.948-6.34v-57.978l8.174-4.729v-14.102Z"/><path fill="#26457F" d="m194.509 333.616 8.767 5.068v14.102l-8.767-5.047v-14.123Z"/><path fill="#669BFF" d="M203.276 338.684v14.102l8.217-4.75v57.999l10.948-6.34v-57.978l8.174-4.729v-14.102l-27.339 15.798Z"/><path fill="#F5F5F5" d="m203.276 338.684 26.344-13.89.995 12.194v-14.102l-27.339 15.798Z"/><path fill="#8BC0FE" d="m230.615 322.886-27.339 15.798-8.767-5.068 27.339-15.799 8.767 5.069Z"/><path fill="#26457F" d="M211.493 406.035v-57.999l-8.217 4.75-.551-.318v48.499l8.768 5.068Z"/><path fill="#427BE8" d="m199.761 340.678-8.768-5.069-25.221 14.569v72.144l8.767 5.068 10.948-6.32v-29.031l10.419-6.022v-14.103l-8.767-5.068-1.652.954v-4.771l14.274-8.249v-14.102Z"/><path fill="#26457F" d="M174.539 427.39v-72.144l-8.767-5.068v72.144l8.767 5.068Z"/><path fill="#669BFF" d="M199.761 354.78v-14.102l-25.222 14.568v72.144l10.948-6.32v-29.031l10.419-6.022v-14.103l-10.419 6.023v-14.908l14.274-8.249Z"/><path fill="#F5F5F5" d="m174.539 355.246 24.353-12.66.869 12.194v-14.102l-25.222 14.568ZM185.487 377.937l9.636-4.432s.868 12.681.783 12.512c-.084-.17 0-14.103 0-14.103l-10.419 6.023Z"/><path fill="#8BC0FE" d="m190.993 335.609 8.768 5.069-25.222 14.568-8.767-5.068 25.221-14.569Z"/><path fill="#26457F" d="m195.906 371.914-10.419 6.023V367.8l1.652-.954 8.767 5.068Z"/><path fill="#3F73D3" d="m160.584 353.189-10.97 6.341v8.758l-7.581-4.368-11.33 6.531v72.144l8.767 5.068 10.97-6.319v-9.268l8.005 4.623 10.906-6.298v-72.143l-8.767-5.069Z"/><path fill="#669BFF" d="M158.381 364.598v34.036l-7.581-29.646-11.33 6.532v72.143l10.97-6.319v-33.04l8.005 28.395 10.906-6.298v-72.143l-10.97 6.34Z"/><path fill="#F5F5F5" d="m158.381 364.598 9.869-4.305 1.101 70.108v-72.143l-10.97 6.34ZM139.47 375.52l10.758-4.835 8.153 27.949-7.581-29.646-11.33 6.532Z"/><path fill="#8BC0FE" d="m169.351 358.258-8.767-5.069-10.97 6.341 8.767 5.068 10.97-6.34ZM130.703 370.451l11.33-6.531 8.767 5.068-11.33 6.532-8.767-5.069Z"/><path fill="#000" d="M139.47 375.52v72.143l-8.767-5.068v-72.144l8.767 5.069ZM158.445 436.699l-8.005-28.395v23.772l8.005 4.623ZM149.614 359.53v8.758l1.186.7 7.581 29.646v-34.036l-8.767-5.068Z" opacity=".4"/><path fill="#F5F5F5" d="M218.989 264.463c-8.873-1.188-16.666.042-24.374 2.481-23.845 7.549-43.582 28.904-57.898 48.583-27.381 40.398-44.725 91.59-35.259 140.513l-.021-.107c3.092 13.615 9.296 27.25 20.605 35.924-11.563-8.483-18.255-22.118-21.516-35.817v.084c-8.725-40.058 2.245-82.131 20.542-117.97 15.819-28.628 40.532-62.198 73.187-71.528 7.793-2.248 15.162-3.733 24.734-2.163Z"/><path fill="#FAFAFA" d="M202.154 9.161V122.87c0 2.714 1.905 5.98 4.214 7.316l94.554 54.712c.487.276.974.424 1.398.403.19 0 .36-.021.529-.064a1.03 1.03 0 0 0 .36-.127l.381-.191c.382-.212.805-.827 1.102-1.421.275-.53.444-1.357.444-2.142V68.687c0-2.693-1.906-5.98-4.214-7.316L206.368 6.722c-1.101-.636-2.076-.72-2.838-.36-.127.063-.254.127-.36.212l-.021.021a1.66 1.66 0 0 0-.275.276c-.064.042-.085.106-.127.148-.064.064-.106.149-.149.212-.106.17-.19.34-.254.552a1.655 1.655 0 0 0-.106.381v.064c-.042.127-.042.254-.063.403-.021.17-.021.34-.021.53Z"/><path fill="#031C49" d="M204.504 7.634c.212 0 .593.064 1.123.382l94.554 54.627c1.842 1.06 3.473 3.88 3.473 6.023v112.689c0 .594-.148 1.188-.275 1.464a3.603 3.603 0 0 1-.551.827c-.063.042-.127.063-.169.085h-.022l-.084.042c-.127.021-.191.042-.233.042-.106 0-.318-.021-.635-.212l-94.555-54.712c-1.885-1.081-3.473-3.838-3.473-6.022V9.161c0-.148.021-.276.021-.403v-.085l.043-.085v-.063l.148-.445v-.022l.085-.148.105-.127h.022l.084-.043a.498.498 0 0 1 .339-.106Zm0-1.484c-.36 0-.677.063-.974.212a2.017 2.017 0 0 0-.36.212l-.021.021a1.66 1.66 0 0 0-.275.276c-.064.042-.085.106-.127.148-.064.064-.106.149-.149.212-.106.17-.19.34-.254.552a1.655 1.655 0 0 0-.106.381v.064c-.042.127-.042.254-.063.403-.021.17-.021.34-.021.53V122.87c0 2.714 1.905 5.98 4.214 7.316l94.554 54.712c.466.254.932.403 1.334.403h.064c.19 0 .36-.021.529-.064a1.03 1.03 0 0 0 .36-.127l.381-.191c.382-.212.805-.827 1.102-1.421.275-.53.444-1.357.444-2.142V68.687c0-2.693-1.906-5.98-4.214-7.316L206.368 6.722c-.678-.403-1.313-.572-1.864-.572Z"/><path fill="#37474F" d="M203.53 6.362c.762-.36 1.737-.255 2.838.36l94.554 54.649c2.33 1.336 4.214 4.623 4.214 7.316v13.805l10.843-6.256v-13.72c0-2.693-1.885-5.96-4.214-7.316L217.21.573c-1.207-.7-2.287-.721-3.07-.255-.763.467-9.699 5.556-10.61 6.044Z"/><path fill="#455A64" d="M202.154 9.119c.021-2.672 1.905-3.754 4.214-2.397l94.554 54.649c2.33 1.357 4.214 4.623 4.214 7.316v13.826L202.154 22.987V9.12Z"/><path fill="#263238" d="M316 76.257V62.516c0-1.378-.508-2.884-1.292-4.22l-10.821 6.192c.783 1.336 1.27 2.82 1.27 4.199v13.826L316 76.257Z"/><path fill="#FAFAFA" d="M226.104 23.963c1.313.763 2.393 3.032 2.393 5.047 0 2.036-1.058 3.054-2.393 2.29-1.313-.763-2.393-3.032-2.393-5.047 0-2.014 1.059-3.053 2.393-2.29ZM217.507 19c1.313.764 2.393 3.033 2.393 5.048 0 2.014-1.059 3.054-2.393 2.29-1.313-.763-2.393-3.032-2.393-5.047.021-2.036 1.08-3.054 2.393-2.29ZM208.93 14.017c1.313.764 2.393 3.033 2.393 5.047 0 2.036-1.059 3.054-2.393 2.29-1.313-.763-2.393-3.032-2.393-5.046 0-2.015 1.08-3.054 2.393-2.29Z"/><path fill="#031C49" d="M303.59 184.918c.149-.106.339-.191.53-.297.381-.233 9.995-5.768 10.08-5.81.678-.403 1.143-1.103 1.292-1.442a5.377 5.377 0 0 0 .487-2.227V76.236l-10.843 6.256v98.885c-.042.827-.169 1.548-.444 2.142-.445.933-1.059 1.378-1.102 1.399Z"/><path fill="#BA68C8" d="M209.142 124.353c-.424-.233-.72-.572-.911-.806v-90.38c.085-.085.276-.191.614-.191.382 0 .848.148 1.292.424l86.91 50.259c.106.063.233.148.339.233l.275.254c.106.106.212.212.296.318v91.187c-.127-.021-.296-.085-.529-.212l-88.286-51.086Z"/><path fill="#5F93F4" d="M209.142 124.353c-.424-.233-.72-.572-.911-.806v-90.38c.085-.085.276-.191.614-.191.382 0 .848.148 1.292.424l86.91 50.259c.106.063.233.148.339.233l.275.254c.106.106.212.212.296.318v91.187c-.127-.021-.296-.085-.529-.212l-88.286-51.086Z"/><path fill="#fff" d="m210.857 120.791 84.707 48.965v-42.964l-23.167-42.306-22.109 14.929 7.645 19.785-23.781-34.227-23.295 8.886v26.932ZM236.926 64.976c0 5.259-2.774 7.93-6.184 5.959-3.409-1.972-6.183-7.847-6.183-13.106 0-5.259 2.774-7.93 6.183-5.959 3.41 1.973 6.184 7.847 6.184 13.106Z"/><path fill="#455A64" d="M245.206 163.076a2.374 2.374 0 0 0 2.372-2.375 2.373 2.373 0 0 0-2.372-2.375 2.373 2.373 0 0 0-2.372 2.375 2.374 2.374 0 0 0 2.372 2.375ZM213.123 248.982a2.37 2.37 0 0 1-2.372 2.375 2.369 2.369 0 0 1-2.371-2.375 2.369 2.369 0 0 1 2.371-2.375 2.37 2.37 0 0 1 2.372 2.375Z"/><path fill="#455A64" d="m244.707 160.536-34.525 88.241 1.065.417 34.525-88.24-1.065-.418Z"/><path fill="#021F63" d="M65.097 65.145a31.248 31.248 0 0 1-3.939-2.65c.424-1.06.805-2.078 1.123-3.033 2.499 4.114 6.078 7.444 9.89 9.776-1.928-1.124-5.951-3.456-7.074-4.093Z"/><path fill="#000" d="M65.097 65.145a31.248 31.248 0 0 1-3.939-2.65c.424-1.06.805-2.078 1.123-3.033 2.499 4.114 6.078 7.444 9.89 9.776-1.928-1.124-5.951-3.456-7.074-4.093Z" opacity=".1"/><path fill="#BA68C8" d="M114.376 75.07c.19 42.285.529 99.287-47.394 145.347l-1.037.997-1.42.276c-3.006.594-5.971.89-8.745.89-7.793 0-14.633-2.29-20.372-6.849 3.811 1.505 7.962 2.269 12.43 2.269 2.774 0 5.718-.297 8.746-.891l1.398-.275 1.038-.997c47.923-46.06 47.584-103.062 47.393-145.348 0-2.269-.021-4.432-.021-6.531 0 0 .021 0 .021-.021l7.942-6.235v10.073c0 2.333 0 4.75.021 7.295Z"/><path fill="#002C7D" d="M114.376 75.07c.19 42.285.529 99.287-47.394 145.347l-1.037.997-1.42.276c-3.006.594-5.971.89-8.745.89-7.793 0-14.633-2.29-20.372-6.849 3.811 1.505 7.962 2.269 12.43 2.269 2.774 0 5.718-.297 8.746-.891l1.398-.275 1.038-.997c47.923-46.06 47.584-103.062 47.393-145.348 0-2.269-.021-4.432-.021-6.531 0 0 .021 0 .021-.021l7.942-6.235v10.073c0 2.333 0 4.75.021 7.295Z"/><path fill="#002C7D" d="m65.945 221.414 1.037-.997c47.923-46.06 47.584-103.062 47.394-145.347-.021-2.545-.021-4.962-.021-7.274V57.723l-4.13 3.266-3.769 2.969-.021.085c0 2.057 0 4.199.021 6.446.211 42.286.55 99.288-47.394 145.348l-1.038.996 7.92 4.581Z"/><path fill="#104DBF" d="M83.627 68.072c-2.816 0-6.692-1.124-11.181-5.068 1.207.339 2.287.466 3.26.466 6.354 0 13.194-2.757 19.78-7.952l15.798-12.47 7.92 4.581-15.798 12.47c-6.586 5.216-13.405 7.973-19.779 7.973Z"/><path fill="#1049B3" d="M83.627 68.072c-2.816 0-6.692-1.124-11.181-5.068 1.207.339 2.287.466 3.26.466 6.354 0 13.194-2.757 19.78-7.952l15.798-12.47 7.92 4.581-15.798 12.47c-6.586 5.216-13.405 7.973-19.779 7.973Z" opacity=".6"/><path fill="#263238" d="m109.463 67.796-7.942-4.58c-13.32 10.518-26.216 11.705-35.47 8.44a20.125 20.125 0 0 1-2.457-2.587l-7.941-4.58c-7.455 18.088-26.196 44.553-45.87 51.763 0 32.552-2.286 78.082 23.888 93.265 1.313.764 6.628 3.817 7.941 4.581 5.803 3.372 13.003 4.559 21.96 2.82 49.321-47.396 45.891-109.339 45.891-149.122Z"/><path fill="#37474F" d="m56.987 121.406 6.628-52.359-7.941-4.58c-7.455 18.089-26.196 44.554-45.87 51.764l7.942 4.581 39.24.594Z"/><path fill="#FAFAFA" d="M55.8 215.731c-7.453 0-13.531-2.481-18.614-7.592-17.873-17.983-17.64-49.813-17.513-79.99 0-2.078.021-4.093.021-6.001 19.928-8.101 37.123-33.379 44.493-49.56 4.807 4.56 11.838 7.21 19.44 7.21 7.92 0 16.116-2.798 23.887-8.142 0 1.124 0 2.269.022 3.456.19 41.056.529 95.937-44.874 139.983-2.393.424-4.701.636-6.861.636Z"/><path fill="#326DDA" d="m60.544 173.933-25.094-16.35 7.496-11.536 12.622 8.228 26.407-48.753 12.092 6.553-33.523 61.858Z"/><path fill="#455A64" d="M105.587 75.218c.191 40.631.487 94.601-43.836 138.053-2.075.339-4.066.53-5.95.53-6.904 0-12.537-2.29-17.217-6.998-17.301-17.41-17.09-48.753-16.941-78.633 0-1.611.02-3.181.02-4.707 18.996-8.419 35.345-31.576 43.223-47.736 5.019 3.839 11.668 6.023 18.762 6.023 7.285 0 14.76-2.248 21.939-6.532Zm3.876-7.422c-9.149 7.231-18.106 10.052-25.815 10.052-8.852 0-16.052-3.711-20.033-8.78-7.454 18.09-26.196 44.555-45.869 51.765 0 37.556-3.05 96.87 38.055 96.87 2.456 0 5.04-.255 7.814-.806 49.278-47.375 45.848-109.318 45.848-149.1Z"/><path fill="#104DBF" d="M53.027 43.26C48.198 65.21 23.548 100.773 6.459 107.05l-6.396 2.354 7.942 4.58 6.395-2.354c17.111-6.277 41.76-41.818 46.568-63.788l-7.941-4.58Z"/><path fill="#1049B3" d="M53.027 43.26C48.198 65.21 23.548 100.773 6.459 107.05l-6.396 2.354 7.942 4.58 6.395-2.354c17.111-6.277 41.76-41.818 46.568-63.788l-7.941-4.58Z" opacity=".6"/><path fill="#BA68C8" d="M28.864 216.431C7.58 194.991 7.793 160.234 7.962 128.107c0-2.545.022-4.984.022-7.295v-6.829l-7.942-4.58v6.828c0 2.312 0 4.75-.02 7.295-.15 32.106-.382 66.885 20.922 88.324 2.414 2.439 5.04 4.475 7.856 6.107 1.186.679 5.422 3.139 7.349 4.263a39.75 39.75 0 0 1-7.285-5.789Z"/><path fill="#0F3171" d="M28.864 216.431C7.58 194.991 7.793 160.234 7.962 128.107c0-2.545.022-4.984.022-7.295v-6.829l-7.942-4.58v6.828c0 2.312 0 4.75-.02 7.295-.15 32.106-.382 66.885 20.922 88.324 2.414 2.439 5.04 4.475 7.856 6.107 1.186.679 5.422 3.139 7.349 4.263a39.75 39.75 0 0 1-7.285-5.789Z"/><path fill="#BA68C8" d="M119.246 75.049c-.021-2.524-.021-4.963-.021-7.253V47.63L103.427 60.1c-6.586 5.195-13.426 7.952-19.779 7.952-5.019 0-13.426-3.605-22.68-20.21-4.828 21.97-29.478 57.511-46.589 63.788l-6.395 2.354v6.829c0 2.311-.022 4.75-.022 7.295-.148 32.127-.38 66.905 20.923 88.324 7.285 7.316 16.327 11.048 26.916 11.048 3.092 0 6.353-.339 9.678-.975l2.816-.552 2.075-1.993c49.427-47.523 49.088-105.84 48.876-148.91ZM66.982 220.417l-1.038.997-1.418.276c-3.029.593-5.972.89-8.746.89-9.233 0-17.132-3.223-23.464-9.606-19.864-19.997-19.652-53.546-19.504-84.846.021-2.566.021-5.005.021-7.316v-3.414l3.198-1.167c18.55-6.807 40.786-40.292 46.208-56.769 5.06 8.334 14.633 13.509 21.367 13.509 7.454 0 15.332-3.118 22.807-8.992l7.942-6.277v10.073c0 2.311.021 4.75.021 7.274.19 42.306.529 99.308-47.394 145.368Z"/><path fill="#5A88DE" d="M119.246 75.049c-.021-2.524-.021-4.963-.021-7.253V47.63L103.427 60.1c-6.586 5.195-13.426 7.952-19.779 7.952-5.019 0-13.426-3.605-22.68-20.21-4.828 21.97-29.478 57.511-46.589 63.788l-6.395 2.354v6.829c0 2.311-.022 4.75-.022 7.295-.148 32.127-.38 66.905 20.923 88.324 7.285 7.316 16.327 11.048 26.916 11.048 3.092 0 6.353-.339 9.678-.975l2.816-.552 2.075-1.993c49.427-47.523 49.088-105.84 48.876-148.91ZM66.982 220.417l-1.038.997-1.418.276c-3.029.593-5.972.89-8.746.89-9.233 0-17.132-3.223-23.464-9.606-19.864-19.997-19.652-53.546-19.504-84.846.021-2.566.021-5.005.021-7.316v-3.414l3.198-1.167c18.55-6.807 40.786-40.292 46.208-56.769 5.06 8.334 14.633 13.509 21.367 13.509 7.454 0 15.332-3.118 22.807-8.992l7.942-6.277v10.073c0 2.311.021 4.75.021 7.274.19 42.306.529 99.308-47.394 145.368Z"/><path fill="#455A64" d="M71.81 236.979a2.373 2.373 0 0 0 2.372-2.375 2.374 2.374 0 0 0-2.371-2.375 2.374 2.374 0 0 0-2.372 2.375 2.373 2.373 0 0 0 2.372 2.375ZM105.524 296.293a2.373 2.373 0 0 0 2.372-2.375 2.373 2.373 0 0 0-2.372-2.375 2.373 2.373 0 0 0-2.372 2.375 2.373 2.373 0 0 0 2.372 2.375Z"/><path fill="#455A64" d="m72.282 234.332-.993.566L105 294.2l.994-.566-33.713-59.302Z"/></svg>