<svg xmlns="http://www.w3.org/2000/svg" width="496" height="540" fill="none" viewBox="0 0 496 540"><g opacity=".44"><path fill="#fff" d="m402.118 44.657 19.788 11.425 9.832 25.415-.089.125-9.85 13.848-19.787-11.424-9.85-25.398.089-.125 9.867-13.866Zm.25 38.89 19.057 11.014 9.583-13.474-9.476-24.488-19.057-11.015-9.583 13.474 9.476 24.489ZM401.995 84.936l19.788 11.425 9.832 25.415-.09.125-9.849 13.866-19.788-11.424-9.831-25.416.089-.124 9.849-13.867Zm.267 38.89 19.058 11.015 9.582-13.474-9.475-24.507-19.058-11.014-9.582 13.491 9.475 24.489ZM371.93 47.759 362.152 61.5l9.672 24.952 19.431 11.229 9.761-13.742-9.654-24.952L371.93 47.76ZM432.147 122.899l-9.778 13.724 9.671 24.97 19.432 11.211 9.76-13.724-9.653-24.952-19.432-11.229ZM378.663 120.227l-9.761 13.741 9.654 24.952 19.431 11.229 9.761-13.742-9.654-24.952-19.431-11.228ZM313.101 50.075 332.888 61.5l9.832 25.415-.089.125-9.85 13.866-19.787-11.424-9.832-25.416.089-.125 9.85-13.866Zm.249 38.89 19.057 11.014 9.583-13.474-9.476-24.488-19.057-11.015-9.582 13.474 9.475 24.489Z" opacity=".44"/></g><g opacity=".44"><path fill="#fff" d="m357.788 193.479 19.788 11.424 9.831 25.415-.089.125-9.849 13.849-19.788-11.425-9.831-25.415.089-.125 9.849-13.848Zm.249 38.889 19.058 11.015 9.582-13.474-9.475-24.489-19.058-11.015-9.582 13.474 9.475 24.489ZM357.681 233.758l19.787 11.424 9.832 25.416-.089.125-9.849 13.866-19.788-11.425-9.832-25.415.089-.125 9.85-13.866Zm.249 38.889 19.057 11.015 9.583-13.474-9.476-24.507-19.057-11.014-9.582 13.492 9.475 24.488ZM327.598 196.58l-9.76 13.742 9.653 24.952 19.432 11.228 9.76-13.741-9.653-24.952-19.432-11.229ZM387.835 271.721l-9.778 13.723 9.653 24.97 19.432 11.211 9.76-13.724-9.653-24.952-19.414-11.228ZM334.348 269.048l-9.778 13.741 9.672 24.952 19.413 11.229 9.761-13.742-9.654-24.952-19.414-11.228ZM268.769 198.896l19.787 11.425 9.832 25.415-.089.125-9.849 13.866-19.788-11.424-9.832-25.416.089-.124 9.85-13.867Zm.267 38.89 19.057 11.015 9.583-13.474-9.476-24.489-19.057-11.015-9.583 13.474 9.476 24.489Z" opacity=".44"/></g><g opacity=".44"><path fill="#fff" d="m284.067 52.393 19.788 11.424 9.832 25.416-.089.124-9.85 13.849-19.787-11.425-9.832-25.415.089-.125 9.849-13.848Zm.25 38.907 19.057 11.015 9.583-13.475-9.476-24.488-19.057-11.015-9.583 13.474 9.476 24.489ZM283.962 92.672l19.788 11.424 9.831 25.416-.089.125-9.849 13.866-19.788-11.425-9.832-25.415.09-.125 9.849-13.866Zm.249 38.907 19.058 11.015 9.582-13.474-9.475-24.507-19.058-11.014-9.582 13.492 9.475 24.488ZM253.88 55.512l-9.761 13.723 9.654 24.97 19.431 11.211 9.761-13.724-9.654-24.952-19.431-11.228ZM314.098 130.652l-9.76 13.724 9.653 24.952 19.432 11.229 9.76-13.742-9.653-24.952-19.432-11.211ZM260.63 127.979l-9.778 13.724 9.671 24.97 19.414 11.211 9.76-13.724-9.653-24.952-19.414-11.229ZM195.05 57.828l19.788 11.425 9.831 25.415-.089.125-9.849 13.866-19.788-11.424-9.832-25.416.089-.125 9.85-13.866Zm.267 38.89 19.057 11.014 9.583-13.474-9.476-24.489-19.057-11.014-9.582 13.474 9.475 24.489Z" opacity=".44"/></g><path fill="#fff" d="m240.77 265.037-.303.178-2.653-1.515-2.619 1.515-.302-.178 2.938-1.711 2.939 1.711ZM470.442 397.711l.961.57-.32.178-.962-.552.321-.196ZM462.391 393.433l.32-.178 3.865 2.228-.303.196-3.882-2.246ZM455.32 389.156l-.161.107-2.618 1.515-.32-.179 2.618-1.532.16-.089.321.178Z"/><path fill="#fff" d="m454.678 388.978.32-.178 3.865 2.228-.32.178-3.384-1.943.16-.107-.321-.178-.16.089-.16-.089ZM446.949 384.522l.321-.196 3.865 2.246-.303.178-3.883-2.228ZM439.236 380.048l.321-.178 3.847 2.228-.321.178-3.847-2.228ZM431.506 375.592l.32-.178 3.865 2.228-.32.178-1.942-1.123.161-.089-.321-.178-.16.089-1.603-.927ZM423.795 371.137l.321-.178 3.847 2.228-.321.178-3.847-2.228ZM416.064 366.664l.321-.179 3.865 2.228-.321.196-3.865-2.245ZM408.334 362.209l.321-.179 3.865 2.228-.321.178-.517-.303.161-.089-.303-.178-.16.089-3.046-1.746ZM400.623 357.752l.303-.196 3.883 2.245-.321.179-3.865-2.228ZM392.893 353.279l.32-.178 3.865 2.227-.32.196-3.865-2.245ZM385.18 348.823l.303-.178 3.864 2.227-.32.179-3.847-2.228ZM377.451 344.367l.321-.196 3.847 2.228-.303.196-3.865-2.228ZM369.721 339.893l.32-.178 3.865 2.228-.32.178-3.865-2.228ZM361.99 335.438l.321-.178 3.865 2.228-.303.178-3.883-2.228ZM354.279 330.982l.321-.196 3.865 2.246-.321.178-3.865-2.228ZM346.549 326.508l.32-.178 3.865 2.228-.302.196-3.883-2.246ZM338.838 322.052l.32-.178 3.848 2.228-.321.178-3.847-2.228ZM331.107 317.596l.321-.196 3.865 2.228-.321.196-3.865-2.228ZM323.395 313.124l.32-.179 3.847 2.228-.32.178-2.476-1.425.142-.107-.302-.179-.161.089-1.05-.605ZM315.666 308.668l.303-.196 3.883 2.245-.321.179-3.865-2.228ZM307.936 304.195l.32-.178 3.865 2.227-.32.196-3.865-2.245ZM300.223 299.738l.302-.178 3.883 2.227-.32.179-1.069-.606.16-.089-.32-.179-.143.089-2.493-1.443ZM292.494 295.283l.321-.179 3.865 2.228-.321.179-3.865-2.228ZM284.781 290.827l.303-.196 3.865 2.228-.321.196-3.847-2.228ZM281.451 288.724l-2.779 1.605-.32-.179 2.778-1.622.321.196ZM277.051 286.354l.32-.178 3.847 2.228-.302.178-3.865-2.228ZM269.338 281.897l.303-.178 3.865 2.228-.321.178-3.847-2.228ZM261.592 277.424l.32-.178 3.865 2.228-.302.196-3.883-2.246ZM253.879 272.968l.32-.178 3.865 2.228-.32.178-3.865-2.228ZM246.148 268.512l.321-.196 3.865 2.246-.303.178-3.883-2.228ZM477.209 401.633l-2.939 1.711-.321-.196 2.619-1.515-2.636-1.533.32-.178 2.957 1.711ZM468.304 406.427l.321.196-3.847 2.228-.321-.179 3.847-2.245ZM456.779 413.128l3.83-2.228.32.179-3.829 2.227-.321-.178ZM449.121 417.583l3.829-2.228.321.197-3.829 2.227-.321-.196ZM441.445 422.057l3.83-2.228.32.178-3.829 2.228-.321-.178ZM433.857 426.637l-.303.196-2.796-1.622.303-.178 2.796 1.604ZM433.768 426.513l3.829-2.228.321.178-3.848 2.246-.302-.196ZM426.092 430.987l3.847-2.246.303.196-3.83 2.228-.32-.178ZM418.416 435.442l3.847-2.228.321.178-3.847 2.228-.321-.178ZM412.271 439.203l-.32.178-.161-.089-2.636-1.533.321-.178 2.636 1.533.16.089Z"/><path fill="#fff" d="m412.11 439.114 2.475-1.444.321.178-3.847 2.246-.321-.196 1.051-.606.16.089.321-.178-.16-.089ZM403.08 444.372l3.829-2.228.321.178-3.829 2.228-.321-.178ZM395.404 448.827l3.83-2.227.32.178-3.829 2.228-.321-.179ZM390.683 451.75l-.32.196-.161-.107-2.636-1.515.321-.178 2.636 1.514.16.09Z"/><path fill="#fff" d="m390.525 451.661 1.033-.606.32.196-3.829 2.21-.32-.178 2.475-1.444.161.107.32-.196-.16-.089ZM380.051 457.756l3.847-2.245.32.196-3.847 2.228-.32-.179ZM372.375 462.212l3.847-2.228.321.179-3.847 2.227-.321-.178ZM369.08 464.315l-.303.178-2.797-1.621.303-.179 2.797 1.622ZM364.717 466.668l3.829-2.228.321.179-3.83 2.245-.32-.196ZM357.039 471.141l3.847-2.245.321.196-3.847 2.227-.321-.178ZM349.363 475.597l3.83-2.228.32.178-3.829 2.228-.321-.178ZM341.705 480.052l3.829-2.228.303.196-3.829 2.228-.303-.196ZM334.01 484.527l3.847-2.228.321.178-3.848 2.228-.32-.178ZM326.352 488.982l3.829-2.228.32.178-3.847 2.246-.302-.196ZM318.674 493.456l3.829-2.246.321.196-3.83 2.228-.32-.178ZM310.998 497.911l3.847-2.227.321.178-3.847 2.228-.321-.179ZM304.159 501.886l2.993-1.746.32.196-3.829 2.21-.321-.178.517-.286.16.089.321-.196-.161-.089ZM295.664 506.823l3.829-2.228.321.196-3.829 2.228-.321-.196ZM287.986 511.296l3.83-2.228.32.179-3.829 2.227-.321-.178ZM282.573 514.451l1.567-.927.321.179-3.83 2.245-.32-.196 1.941-1.123.16.09.303-.179-.142-.089ZM272.635 520.226l3.847-2.246.32.196-3.847 2.228-.32-.178ZM264.957 524.682l3.847-2.228.321.178-3.847 2.228-.321-.178ZM260.968 526.998l.16-.089.321.178-3.847 2.246-.303-.196 3.366-1.96.16.106.303-.196-.16-.089ZM249.623 533.611l3.829-2.228.321.178-3.829 2.228-.321-.178ZM244.832 536.39l.944-.552.321.178-.944.553-.321-.179ZM242.319 538.227l-2.939 1.694-2.956-1.712.32-.178 2.636 1.533 2.619-1.533.32.196ZM227.198 532.506l3.847 2.228-.321.196-3.847-2.228.321-.196ZM219.148 528.228l.321-.178 3.865 2.228-.321.178-3.865-2.228ZM211.436 523.773l.32-.178 3.847 2.228-.32.178-3.847-2.228ZM203.705 519.299l.321-.178 3.865 2.228-.321.196-3.865-2.246ZM198.843 513.115l-2.761 1.604-.32-.178 2.76-1.604.321.178ZM195.977 514.843l.32-.178 3.865 2.228-.32.196-3.865-2.246ZM188.264 510.387l.32-.178 3.865 2.228-.32.178-3.865-2.228ZM180.535 505.931l.321-.196 3.865 2.246-.321.178-3.865-2.228ZM174.336 502.154l.16-.09 2.494 1.444-.321.178-3.847-2.227.303-.179 1.069.606-.161.089.303.179ZM165.092 497.002l.32-.178 3.848 2.228-.303.178-3.865-2.228ZM157.381 492.547l.303-.196 3.865 2.227-.321.196-3.847-2.227ZM155.386 488.001l-2.618 1.515-.161.09-.302-.179.16-.089 2.6-1.515.321.178Z"/><path fill="#fff" d="m152.607 489.606.16-.089 1.051.606-.303.179-3.865-2.228.303-.178 2.511 1.443-.16.089.303.178ZM141.92 483.618l.321-.196 3.864 2.246-.32.178-3.865-2.228ZM134.191 479.144l.321-.178 3.865 2.228-.303.196-3.883-2.246ZM126.479 474.688l.32-.178 3.847 2.228-.32.178-3.847-2.228ZM118.748 470.232l.321-.178 3.865 2.228-.321.178-3.865-2.228ZM111.037 465.777l.321-.196 3.847 2.228-.321.196-3.847-2.228ZM103.307 461.303l.32-.178 3.865 2.228-.32.178-3.865-2.228ZM95.576 456.847l.32-.196 3.866 2.246-.32.178-3.866-2.228ZM87.865 452.374l.32-.179 3.866 2.228-.32.196-3.866-2.245ZM80.135 447.918l.32-.178 3.865 2.228-.32.178-3.865-2.228ZM72.422 443.463l.303-.196 3.865 2.227-.321.196-3.847-2.227ZM65.689 439.381l.16-.089 3.01 1.746-.303.179-3.865-2.228.321-.178.516.303-.16.089.32.178ZM56.98 434.533l.303-.179 3.865 2.228-.32.179-3.848-2.228ZM49.25 430.078l.303-.196 3.865 2.246-.303.178-3.865-2.228ZM43.96 426.834l.142-.089 1.603.909-.32.196-3.865-2.246.32-.178 1.96 1.123-.161.089.32.196ZM33.791 421.148l.32-.178 3.866 2.228-.303.178-3.883-2.228ZM26.078 416.692l.32-.196 3.866 2.246-.32.178-3.866-2.228ZM24.991 412.665l-2.618 1.514-.16.09-.303-.179.143-.089 2.618-1.515.32.179Z"/><path fill="#fff" d="m22.215 414.268.16-.089.16.089-.32.178-3.865-2.228.32-.178 3.384 1.961-.142.089.303.178ZM10.637 407.763l.32-.178 3.847 2.228-.32.178-3.847-2.228ZM5.81 404.982l.321-.196.962.553-.32.196-.962-.553ZM3.245 400.1l-2.6 1.515 2.636 1.533-.32.178-2.94-1.693 2.921-1.711.303.178ZM232.061 266.677l.321.178-.962.552-.303-.178.944-.552ZM223.439 271.703l3.848-2.227.302.16-3.847 2.246-.303-.179ZM215.764 276.159l3.847-2.228.303.178-3.367 1.96-.142-.089-.321.179.143.089-.161.089-.302-.178ZM208.088 280.615l3.847-2.228.303.178-3.83 2.228-.32-.178ZM200.43 285.087l3.829-2.245.321.178-3.848 2.246-.302-.179ZM192.752 289.544l3.829-2.228.303.179-1.923 1.122-.143-.089-.321.196.143.072-1.585.927-.303-.179Z"/><path fill="#fff" d="m197.597 290.15-.32.179-2.636-1.533-.143-.072.321-.196.142.089 2.636 1.533ZM185.076 293.999l3.829-2.228.321.179-3.829 2.228-.321-.179ZM177.418 298.473l3.829-2.228.303.178-3.829 2.228-.303-.178ZM176.011 302.697l-.32.178-2.636-1.515-.143-.089.303-.178.16.089 2.636 1.515Z"/><path fill="#fff" d="m169.723 302.928 3.847-2.228.303.178-.499.303-.16-.089-.303.179.142.089-3.01 1.746-.32-.178ZM162.064 307.403l3.83-2.246.32.178-3.847 2.246-.303-.178ZM154.389 311.858l3.847-2.228.303.178-3.848 2.228-.302-.178ZM146.711 316.314l3.847-2.228.303.178-3.847 2.228-.303-.178ZM139.035 320.77l3.847-2.21.303.16-3.829 2.228-.321-.178ZM131.377 325.243l3.829-2.227.303.178-3.829 2.228-.303-.179ZM123.699 329.699l3.83-2.228.302.178-3.829 2.228-.303-.178ZM116.023 334.172l3.83-2.245.32.178-3.847 2.246-.303-.179ZM108.348 338.627l3.847-2.228.303.179-3.848 2.228-.302-.179ZM100.67 343.084l3.847-2.228.303.179-3.829 2.228-.321-.179ZM93.012 347.558l3.829-2.228.303.178-3.83 2.228-.302-.178ZM85.336 352.013l3.83-2.228.302.178-2.476 1.444-.142-.089-.32.178.16.089-1.051.606-.303-.178ZM77.658 356.469l3.83-2.228.32.178-3.847 2.228-.303-.178ZM69.982 360.942l3.848-2.228.302.178-3.847 2.228-.303-.178ZM62.307 365.399l3.847-2.228.303.178-1.051.606-.143-.089-.32.196.142.071-2.476 1.444-.302-.178ZM54.647 369.854l3.829-2.228.303.178-3.83 2.228-.302-.178ZM46.97 374.327l3.83-2.246.32.178-3.846 2.246-.303-.178ZM39.295 378.783l3.83-2.228.302.178-3.83 2.228-.302-.178ZM31.617 383.24l3.83-2.228.32.178-3.83 2.228-.32-.178ZM23.959 387.712l3.83-2.228.302.179-3.83 2.227-.302-.178ZM16.266 392.168l3.847-2.228.303.179-3.83 2.228-.32-.179ZM8.605 396.641l3.83-2.245.32.178-3.847 2.245-.303-.178ZM24.867 390.582l-.32.196-2.78-1.604.303-.196 2.797 1.604ZM254.52 523.273l.979.553-.32.196-.962-.57.303-.179ZM246.488 518.996l.321-.179 3.865 2.228-.321.178-3.865-2.227ZM239.24 514.451l.16-.089.32.178-.16.09-.32.178-3.367 1.96-.32-.178 3.384-1.96.303-.179Z"/><path fill="#fff" d="m239.238 514.807.321-.178 3.384 1.96-.303.179-3.402-1.961ZM238.775 514.541l.303-.179.16.089-.302.179-.161-.089ZM231.045 510.085l.321-.196 3.864 2.245-.32.179-3.865-2.228ZM223.334 505.612l.303-.178 3.865 2.227-.321.179-3.847-2.228ZM217.51 502.26l.32-.178 1.942 1.123-.321.178-1.941-1.123Z"/><path fill="#fff" d="m217.509 501.886.16-.089.321.178-.16.107-.321.178-3.366 1.961-.321-.196 3.366-1.943.321-.196Z"/><path fill="#fff" d="m215.604 501.155.32-.178 1.585.909-.32.196-1.585-.927ZM207.873 496.699l.321-.196 3.865 2.228-.321.196-3.865-2.228ZM200.145 492.226l.32-.178 3.865 2.228-.321.178-3.864-2.228ZM195.781 489.338l.16-.089.303.178-.161.089-.302.179-3.384 1.96-.303-.178 3.366-1.961.321-.178Z"/><path fill="#fff" d="m192.432 487.77.32-.196 3.028 1.765-.32.178-3.028-1.747ZM195.779 489.696l.303-.178.534.303-.32.178-.517-.303ZM184.701 483.296l.321-.178 3.865 2.228-.321.196-3.865-2.246ZM176.99 478.84l.321-.178 3.865 2.228-.321.178-3.865-2.228ZM169.26 474.385l.32-.178 3.848 2.21-.303.196-3.865-2.228ZM161.547 469.929l.303-.196 3.865 2.228-.321.196-3.847-2.228ZM153.818 465.457l.303-.179 3.865 2.228-.303.178-3.865-2.227ZM146.088 461l.32-.196 3.865 2.245-.32.179-3.865-2.228ZM138.377 456.527l.303-.178 3.865 2.227-.303.197-3.865-2.246ZM126.889 453.8l3.847-2.228.32.179-3.847 2.245-.32-.196ZM130.646 452.071l.321-.178 3.865 2.227-.321.179-3.865-2.228ZM122.934 447.616l.302-.196 3.865 2.228-.32.196-3.847-2.228ZM115.205 443.141l.321-.178 3.847 2.228-.321.178-3.847-2.228ZM107.475 438.686l.32-.178 1.051.606-.321.178-1.05-.606Z"/><path fill="#fff" d="m108.845 439.114.16-.09.321.179-.16.089-.321.178-3.366 1.961-.321-.179 3.366-1.96.321-.178Z"/><path fill="#fff" d="m108.846 439.47.32-.178 2.494 1.444-.321.178-2.493-1.444ZM99.744 434.212l.321-.178 3.865 2.246-.321.178-3.865-2.246ZM92.033 429.757l.32-.178 3.866 2.228-.32.196-3.866-2.246ZM87.117 426.923l.32-.178 1.052.606-.321.178-1.05-.606ZM84.303 425.3l.32-.178 2.494 1.426-.32.196-2.494-1.444ZM76.59 420.845l.32-.196 3.865 2.246-.32.178-3.865-2.228ZM68.861 416.372l.32-.179 3.848 2.228-.303.178-3.865-2.227ZM61.148 411.917l.303-.179 3.865 2.228-.32.178-3.848-2.227ZM61.701 416.141l3.847-2.228.32.178-3.846 2.228-.32-.178ZM53.418 407.46l.32-.196 3.848 2.228-.303.196-3.865-2.228ZM45.69 402.986l.32-.178 3.865 2.227-.32.179-3.865-2.228ZM37.977 398.531l.302-.196 3.865 2.246-.302.178-3.865-2.228ZM30.246 394.057l.32-.178 3.866 2.246-.321.178-3.865-2.246ZM261.129 527.087l-.303.197-.16-.107-2.654-1.515.32-.179 2.636 1.515.161.089ZM46.455 378.035l-.321.178-2.779-1.604.321-.178 2.779 1.604ZM276.125 510.727l.962.552-.321.178-.961-.552.32-.178ZM268.074 506.448l.321-.196 3.865 2.246-.321.178-3.865-2.228ZM260.826 501.886l1.585-.909.321.178-1.585.927-.303.178-1.959 1.123-.303-.179 1.941-1.122.303-.196Z"/><path fill="#fff" d="m260.844 502.26.303-.178 3.401 1.943-.32.196-3.384-1.961ZM260.363 501.975l.303-.178.16.089-.302.196-.161-.107ZM252.633 497.519l.32-.178 3.865 2.228-.32.178-3.865-2.228ZM244.92 493.064l.303-.178 3.865 2.21-.321.196-3.847-2.228ZM239.096 489.339l1.585-.927.321.196-1.585.909-.321.178-1.941 1.141-.321-.178 1.959-1.141.303-.178Z"/><path fill="#fff" d="m239.096 489.696.32-.178 1.942 1.122-.303.179-1.959-1.123ZM237.191 488.608l.321-.196 1.585.927-.303.178-1.603-.909ZM229.479 484.134l.302-.178 3.865 2.228-.32.178-3.847-2.228ZM221.748 479.678l.303-.196 3.865 2.246-.303.178-3.865-2.228ZM214.02 475.206l.32-.179 3.028 1.747-.321.196-3.027-1.764ZM217.367 477.148l.303-.196.534.303-.32.196-.517-.303Z"/><path fill="#fff" d="m217.367 476.774 1.586-.909.302.178-1.585.909-.303.196-1.941 1.123-.321-.178 1.942-1.123.32-.196ZM206.289 470.75l.321-.179 3.865 2.228-.303.178-3.883-2.227ZM198.576 466.294l.321-.196 3.865 2.245-.321.179-3.865-2.228ZM190.848 461.82l.32-.178 3.865 2.227-.32.179-3.865-2.228ZM183.135 457.365l.32-.178 3.847 2.227-.32.179-3.847-2.228ZM175.404 452.891l.321-.178 3.865 2.228-.321.196-3.865-2.246ZM167.676 448.435l.32-.178 3.865 2.228-.32.178-3.865-2.228ZM159.963 443.979l.303-.178 3.882 2.228-.32.178-3.865-2.228ZM152.232 439.523l.321-.196 3.865 2.246-.321.178-3.865-2.228ZM144.521 435.05l.303-.178 3.865 2.228-.32.178-3.848-2.228ZM136.791 430.594l.321-.178 3.847 2.228-.303.178-3.865-2.228ZM129.078 426.138l.303-.196 1.051.606-.321.196-1.033-.606Z"/><path fill="#fff" d="m130.432 426.549 1.585-.909.321.178-1.585.927-.321.178-1.941 1.123-.321-.178 1.941-1.123.321-.196Z"/><path fill="#fff" d="m130.432 426.922.32-.178 2.494 1.426-.321.196-2.493-1.444ZM121.332 421.665l.321-.179 3.865 2.228-.303.178-3.883-2.227ZM113.619 417.21l.321-.196 3.865 2.245-.321.179-3.865-2.228ZM105.889 412.736l.32-.178 2.494 1.443-.321.178-2.493-1.443Z"/><path fill="#fff" d="m108.703 414.001 1.586-.927.32.196-1.585.909-.321.196-1.941 1.123-.321-.178 1.942-1.141.32-.178Z"/><path fill="#fff" d="m108.703 414.376.321-.196 1.051.606-.303.196-1.069-.606ZM98.178 408.28l.32-.178 3.865 2.227-.32.196-3.865-2.245ZM90.447 403.824l.32-.178 3.866 2.227-.32.179-3.866-2.228ZM82.734 399.369l.321-.196 3.847 2.228-.32.196-3.848-2.228ZM75.006 394.895l.32-.178 3.865 2.228-.32.178-3.865-2.228ZM67.275 390.439l.321-.196 3.865 2.246-.32.178-3.866-2.228ZM59.563 385.965l.302-.178 3.883 2.228-.32.196-3.865-2.246ZM51.834 381.51l.32-.178 3.865 2.228-.32.178-3.865-2.228ZM282.714 514.541l-.302.178-.161-.089-2.636-1.533.303-.178 2.654 1.533.142.089ZM68.04 365.487l-.32.178-2.636-1.532-.143-.072.321-.196.142.089 2.636 1.533ZM297.711 498.161l.962.57-.321.179-.961-.553.32-.196ZM289.662 493.883l.321-.178 3.865 2.228-.303.196-3.883-2.246ZM281.949 489.427l.321-.178.16.089-.32.178-.161-.089Z"/><path fill="#fff" d="m282.431 489.338 2.992-1.746.321.178-3.01 1.747-.303.178-.517.303-.32-.178.516-.303.321-.179Z"/><path fill="#fff" d="m282.43 489.696.302-.178 3.402 1.96-.32.178-3.384-1.96ZM274.219 484.972l.32-.196 3.865 2.246-.32.178-3.865-2.228ZM266.508 480.499l.32-.179 3.848 2.228-.321.178-3.847-2.227ZM258.777 476.043l.321-.178 1.603.909-.321.196-1.603-.927Z"/><path fill="#fff" d="m260.7 476.774 2.993-1.747.32.196-3.01 1.747-.303.178-.516.303-.321-.196.517-.285.32-.196Z"/><path fill="#fff" d="m260.701 477.148.303-.178 1.959 1.123-.32.178-1.942-1.123ZM251.064 471.587l.321-.196 3.847 2.227-.32.197-3.848-2.228ZM243.336 467.113l.303-.178 3.882 2.227-.32.179-3.865-2.228ZM238.953 464.583l.321-.179.516.303-.32.179-.517-.303Z"/><path fill="#fff" d="m238.954 464.226 3.01-1.747.303.179-2.992 1.746-.321.179-.516.303-.303-.179.516-.303.303-.178Z"/><path fill="#fff" d="m235.605 462.658.321-.179 3.028 1.747-.303.178-3.046-1.746ZM227.893 458.202l.302-.196 3.865 2.246-.302.178-3.865-2.228ZM220.164 453.728l.321-.178 3.865 2.228-.321.196-3.865-2.246ZM212.451 449.273l.303-.178 3.865 2.228-.321.178-3.847-2.228ZM204.721 444.817l.32-.196 3.847 2.228-.302.196-3.865-2.228ZM196.992 440.343l.321-.178 3.865 2.228-.321.178-3.865-2.228ZM189.262 435.887l.32-.196 3.865 2.246-.32.178-3.865-2.228ZM181.549 431.414l.32-.179 3.865 2.228-.32.196-3.865-2.245ZM172.93 427.03l3.829-2.228.321.196-3.83 2.228-.32-.196ZM173.82 426.959l.321-.179 3.865 2.228-.321.178-3.865-2.227ZM166.107 422.502l.321-.178 3.847 2.21-.32.196-3.848-2.228ZM158.377 418.048l.321-.196 3.864 2.227-.32.196-3.865-2.227ZM152.019 414.001l3.01-1.747.32.178-3.01 1.747-.32.196-.499.285-.321-.178.517-.303.303-.178Z"/><path fill="#fff" d="m152.02 414.376.32-.196 2.494 1.443-.321.179-2.493-1.426ZM150.666 413.573l.321-.178 1.033.605-.303.179-1.051-.606ZM142.936 409.118l.302-.196 3.883 2.246-.321.178-3.864-2.228ZM135.205 404.644l.321-.178 3.865 2.228-.321.196-3.865-2.246ZM127.494 400.189l.303-.178 2.493 1.426-.32.196-2.476-1.444Z"/><path fill="#fff" d="m130.29 401.436 3.01-1.747.321.197-3.01 1.746-.321.178-.499.303-.32-.196.498-.285.321-.196Z"/><path fill="#fff" d="m130.289 401.81.321-.178 1.05.606-.302.178-1.069-.606ZM119.764 395.732l.32-.196 3.865 2.246-.32.178-3.865-2.228ZM112.051 391.259l.303-.178 3.865 2.228-.321.178-3.847-2.228ZM104.322 386.803l.321-.178 3.847 2.228-.303.178-3.865-2.228ZM96.61 382.348l.302-.178 3.865 2.21-.32.196-3.848-2.228ZM88.861 377.874l.32-.179 3.866 2.228-.32.196-3.866-2.245ZM81.15 373.418l.321-.178 3.865 2.228-.32.178-3.866-2.228ZM73.42 368.963l.32-.196 3.865 2.245-.32.179-3.865-2.228ZM304.32 501.975l-.321.196-.16-.089-2.636-1.533.321-.178 2.636 1.515.16.089ZM89.628 352.921l-.302.179-2.636-1.515-.16-.089.32-.179.142.09 2.636 1.514ZM319.299 485.614l.962.553-.321.178-.961-.553.32-.178ZM311.266 481.336l.302-.178 3.865 2.228-.302.178-3.865-2.228ZM303.535 476.88l.321-.196 3.865 2.245-.321.178-3.865-2.227ZM295.824 472.407l.303-.178 3.865 2.227-.303.196-3.865-2.245ZM288.094 467.952l.32-.179 3.847 2.228-.32.179-3.847-2.228ZM280.383 463.496l.303-.196 3.865 2.228-.321.196-3.847-2.228ZM272.652 459.021l.321-.178 3.847 2.228-.32.178-3.848-2.228ZM264.922 454.566l.32-.196 3.865 2.246-.32.178-3.865-2.228ZM257.191 450.092l.321-.178 3.865 2.228-.321.196-3.865-2.246ZM249.48 445.637l.321-.178 3.865 2.228-.321.178-3.865-2.228ZM241.75 441.181l.321-.178 3.864 2.228-.32.178-3.865-2.228ZM234.039 436.725l.321-.196 3.847 2.228-.321.178-3.847-2.21ZM226.309 432.251l.32-.178 3.847 2.228-.302.178-3.865-2.228ZM218.578 427.797l.321-.196 3.865 2.245-.321.179-3.865-2.228ZM210.865 423.323l.303-.178 3.865 2.227-.303.196-3.865-2.245ZM203.137 418.867l.32-.179 3.865 2.228-.32.179-3.865-2.228ZM195.424 414.411l.303-.196 3.865 2.246-.303.178-3.865-2.228ZM187.693 409.938l.321-.178 3.847 2.228-.32.178-3.848-2.228ZM179.982 405.482l.303-.178 3.865 2.228-.32.178-3.848-2.228ZM174.211 401.098l3.847-2.228.321.178-3.847 2.228-.321-.178ZM172.252 401.026l.321-.178 3.847 2.21-.321.196-3.847-2.228ZM164.521 396.552l.321-.178 3.865 2.228-.321.178-3.865-2.228ZM156.793 392.097l.321-.178 3.864 2.228-.32.178-3.865-2.228ZM152.482 388.533l3.848-2.228.32.178-3.847 2.246-.321-.196ZM149.08 387.641l.321-.196 3.865 2.246-.321.178-3.865-2.228ZM141.35 383.167l.32-.178 3.865 2.228-.32.196-3.865-2.246ZM133.639 378.711l.32-.178 3.847 2.228-.32.178-3.847-2.228ZM125.908 374.256l.321-.196 3.847 2.227-.303.197-3.865-2.228ZM118.197 369.783l.303-.179 3.865 2.228-.321.179-3.847-2.228ZM110.467 365.327l.303-.196 3.865 2.246-.303.178-3.865-2.228ZM102.736 360.853l.321-.178 3.865 2.228-.321.196-3.865-2.246ZM95.025 356.397l.303-.178 3.865 2.228-.303.196-3.865-2.246ZM325.906 489.428l-.321.178-2.796-1.604.321-.196 2.796 1.622ZM111.232 340.375l-.32.178-2.797-1.604.321-.196 2.796 1.622ZM340.885 473.049l.962.57-.303.178-.98-.552.321-.196ZM332.852 468.771l.32-.178 3.865 2.228-.32.196-3.865-2.246ZM325.123 464.315l.321-.178 3.865 2.228-.321.178-3.865-2.228ZM317.41 459.859l.321-.196 3.865 2.246-.321.178-3.865-2.228ZM309.68 455.404l.32-.196 3.847 2.228-.302.178-3.865-2.21ZM298.229 454.941l3.829-2.228.32.196-3.829 2.228-.32-.196ZM301.969 450.93l.303-.178 3.864 2.228-.32.178-3.847-2.228ZM294.238 446.475l.321-.178 3.847 2.228-.303.178-3.865-2.228ZM286.508 442l.32-.178 3.865 2.228-.32.196-3.865-2.246ZM278.797 437.545l.303-.178 3.865 2.228-.303.178-3.865-2.228ZM271.066 433.09l.321-.196 3.865 2.245-.321.178-3.865-2.227ZM263.336 428.617l.321-.179 3.864 2.228-.302.196-3.883-2.245ZM255.625 424.16l.321-.179 3.847 2.228-.321.179-3.847-2.228ZM247.895 419.704l.32-.196 3.865 2.228-.321.196-3.864-2.228ZM240.164 415.231l.321-.178 3.865 2.228-.321.178-3.865-2.228ZM232.453 410.776l.321-.178 3.865 2.228-.321.178-3.865-2.228ZM224.723 406.319l.32-.196 3.865 2.246-.32.178-3.865-2.228ZM217.012 401.845l.32-.178 3.865 2.228-.32.196-3.865-2.246ZM209.281 397.39l.321-.178 3.847 2.228-.303.178-3.865-2.228ZM201.568 392.934l.303-.196 3.865 2.228-.32.196-3.848-2.228ZM193.84 388.46l.32-.178 3.848 2.228-.303.178-3.865-2.228ZM186.109 384.005l.321-.196 3.865 2.245-.321.179-3.865-2.228ZM178.396 379.532l.303-.178 3.865 2.227-.303.196-3.865-2.245ZM170.668 375.076l.321-.179 3.865 2.228-.321.179-3.865-2.228ZM162.938 370.621l.32-.179 3.865 2.228-.303.178-3.882-2.227ZM155.225 366.164l.32-.196 3.847 2.228-.32.196-3.847-2.228ZM147.496 361.691l.321-.178 3.865 2.228-.321.178-3.865-2.228ZM139.783 357.235l.321-.178 3.847 2.227-.321.179-3.847-2.228ZM132.053 352.762l.32-.178 3.865 2.228-.32.196-3.865-2.246ZM124.324 348.305l.321-.178 3.865 2.228-.321.178-3.865-2.228ZM116.611 343.85l.303-.196 3.883 2.246-.321.178-3.865-2.228ZM347.492 476.881l-.321.178-2.796-1.622.321-.178 2.796 1.622ZM132.82 327.81l-.303.178-2.796-1.604.302-.178 2.797 1.604ZM362.473 460.501l.979.553-.32.178-.962-.553.303-.178ZM354.457 456.224l.303-.178 3.865 2.228-.303.178-3.865-2.228ZM346.727 451.751l.302-.179 3.865 2.246-.303.178-3.864-2.245ZM339.016 447.294l.302-.178 3.865 2.228-.302.178-3.865-2.228ZM331.285 442.838l.303-.178 3.865 2.228-.321.178-3.847-2.228ZM321.24 441.573l3.847-2.246.321.196-3.847 2.228-.321-.178ZM323.572 438.366l.303-.178 3.847 2.227-.303.179-3.847-2.228ZM315.844 433.91l.303-.179 3.864 2.228-.32.179-3.847-2.228ZM308.113 429.436l.303-.161 3.865 2.228-.303.178-3.865-2.245ZM299.51 429.008l3.847-2.228.303.179-3.83 2.227-.32-.178ZM300.383 424.98l.303-.178 3.882 2.245-.32.161-3.865-2.228ZM292.672 420.525l.303-.178 3.865 2.228-.303.178-3.865-2.228ZM284.941 416.069l.303-.178 3.883 2.227-.321.179-3.865-2.228ZM277.229 411.594l.302-.178 3.847 2.228-.302.178-3.847-2.228ZM269.5 407.139l.303-.178 3.865 2.228-.303.178-3.865-2.228ZM261.77 402.666l.302-.179 3.865 2.246-.303.178-3.864-2.245ZM254.057 398.21l.302-.178 3.865 2.228-.303.178-3.864-2.228ZM246.326 393.754l.303-.178 3.865 2.228-.303.178-3.865-2.228ZM238.615 389.281l.303-.161 3.865 2.228-.303.178-3.865-2.245ZM230.885 384.825l.303-.179 3.864 2.228-.32.179-3.847-2.228ZM223.174 380.37l.303-.179 3.847 2.228-.303.179-3.847-2.228ZM215.443 375.914l.303-.179 3.865 2.228-.32.178-3.848-2.227ZM207.713 371.44l.303-.178 3.865 2.228-.303.178-3.865-2.228ZM199.984 366.984l.303-.178 3.883 2.228-.321.178-3.865-2.228ZM192.271 362.511l.303-.178 3.865 2.246-.303.178-3.865-2.246ZM184.541 358.055l.303-.178 3.865 2.228-.303.178-3.865-2.228ZM176.83 353.599l.303-.178 3.847 2.228-.303.178-3.847-2.228ZM169.1 349.125l.302-.16 3.865 2.21-.302.178-3.865-2.228ZM161.389 344.67l.302-.178 3.848 2.228-.303.178-3.847-2.228ZM153.658 340.214l.303-.178 3.865 2.228-.303.178-3.865-2.228ZM145.928 335.741l.303-.179 3.864 2.246-.302.178-3.865-2.245ZM138.215 331.285l.303-.179 3.865 2.228-.303.179-3.865-2.228ZM154.423 315.245l-.32.196-2.796-1.622.32-.178 2.796 1.604ZM384.076 447.936l.962.552-.303.196-.979-.57.32-.178ZM376.043 443.659l.321-.179 3.865 2.228-.321.179-3.865-2.228ZM368.795 439.47l.321-.178 3.384 1.961-.321.178-3.384-1.961ZM368.314 439.203l.321-.179.16.09-.32.178-.161-.089ZM360.602 434.747l.32-.196 3.865 2.245-.32.179-3.865-2.228ZM352.871 430.273l.321-.178 3.847 2.228-.303.178-3.865-2.228ZM347.066 426.548l1.033-.606.321.196-1.034.606-.32.179-2.476 1.443-.32-.196 2.475-1.426.321-.196Z"/><path fill="#fff" d="m347.066 426.922.321-.178 1.941 1.123-.32.178-1.942-1.123ZM345.16 425.818l.303-.178 1.603.909-.321.196-1.585-.927ZM337.43 421.362l.32-.196 3.847 2.228-.302.196-3.865-2.228ZM329.699 416.888l.321-.178 3.865 2.228-.321.178-3.865-2.228ZM325.335 414.001l1.033-.606.303.178-1.033.606-.32.178-2.476 1.444-.303-.179 2.476-1.443.32-.178Z"/><path fill="#fff" d="m321.988 412.432.303-.196 3.046 1.765-.321.178-3.028-1.747ZM325.318 414.358l.321-.178.516.303-.302.178-.535-.303ZM314.258 407.959l.32-.178 3.865 2.228-.32.196-3.865-2.246ZM306.527 403.503l.321-.178 3.865 2.228-.303.178-3.883-2.228ZM300.811 403.058l3.829-2.228.303.178-3.83 2.228-.302-.178ZM298.816 399.048l.321-.178 3.847 2.21-.32.196-3.848-2.228ZM291.086 394.592l.321-.196 3.864 2.227-.32.196-3.865-2.227ZM283.355 390.119l.321-.179 3.865 2.228-.321.179-3.865-2.228ZM275.645 385.663l.32-.196 3.865 2.246-.321.178-3.864-2.228ZM267.914 381.19l.321-.178 3.865 2.228-.321.196-3.865-2.246ZM257.334 377.946l3.829-2.228.321.196-3.829 2.228-.321-.196ZM260.203 376.733l.303-.178 3.883 2.228-.321.178-3.865-2.228ZM252.473 372.277l.32-.196 3.847 2.228-.302.196-3.865-2.228ZM244.76 367.804l.303-.178 3.864 2.228-.32.178-3.847-2.228ZM237.031 363.349l.321-.178 1.051.606-.321.178-1.051-.606Z"/><path fill="#fff" d="m238.402 363.777 1.033-.606.32.178-1.033.606-.32.178-2.476 1.444-.321-.178 2.476-1.444.321-.178Z"/><path fill="#fff" d="m238.402 364.132.321-.178 2.476 1.444-.303.178-2.494-1.444ZM229.301 358.874l.32-.178 3.865 2.228-.32.196-3.865-2.246ZM221.588 354.418l.303-.178 3.865 2.228-.303.196-3.865-2.246ZM216.672 351.585l.303-.178 1.068.606-.32.178-1.051-.606Z"/><path fill="#fff" d="m216.671 351.211 1.033-.606.321.197-1.051.606-.303.178-2.475 1.443-.321-.196 2.476-1.425.32-.197Z"/><path fill="#fff" d="m213.859 349.963.321-.178 2.493 1.426-.32.196-2.494-1.444ZM206.129 345.508l.32-.196 3.865 2.245-.302.178-3.883-2.227ZM198.416 341.035l.321-.179 3.847 2.228-.321.179-3.847-2.228ZM190.686 336.578l.32-.179 3.865 2.228-.32.179-3.865-2.228ZM182.975 332.123l.32-.196 3.847 2.228-.32.196-3.847-2.228ZM175.244 327.649l.321-.178 3.865 2.228-.321.178-3.865-2.228ZM167.514 323.194l.32-.196 3.865 2.246-.32.178-3.865-2.228ZM159.803 318.719l.303-.178 3.882 2.228-.32.196-3.865-2.246ZM405.662 435.389l.98.552-.321.178-.979-.552.32-.178ZM397.631 431.111l.32-.196 3.865 2.246-.32.178-3.865-2.228ZM390.381 426.923l.32-.178 3.384 1.943-.302.196-3.402-1.961ZM389.9 426.638l.321-.178.16.089-.32.196-.161-.107ZM382.189 422.182l.321-.178 3.865 2.228-.321.178-3.865-2.228ZM374.459 417.726l.321-.196 3.864 2.228-.32.196-3.865-2.228ZM368.652 414.358l.321-.178 1.941 1.123-.32.178-1.942-1.123Z"/><path fill="#fff" d="m368.653 414.001 2.475-1.443.321.178-2.476 1.443-.32.179-1.051.623-.321-.196 1.051-.606.321-.178Z"/><path fill="#fff" d="m366.746 413.27.321-.196 1.585.927-.321.178-1.585-.909ZM359.018 408.797l.32-.178 3.865 2.228-.32.178-3.865-2.228ZM351.287 404.342l.321-.196 3.865 2.245-.321.178-3.865-2.227ZM346.906 401.81l.321-.196.534.303-.32.196-.535-.303Z"/><path fill="#fff" d="m346.922 401.437 2.476-1.426.303.178-2.476 1.426-.321.196-1.05.606-.303-.178 1.051-.606.32-.196Z"/><path fill="#fff" d="m343.574 399.868.303-.179 3.046 1.747-.321.196-3.028-1.764ZM335.844 395.412l.32-.179 3.865 2.228-.32.178-3.865-2.227ZM328.133 390.956l.303-.196 3.865 2.245-.303.179-3.865-2.228ZM320.402 386.483l.321-.178 3.847 2.228-.303.178-3.865-2.228ZM312.691 382.027l.303-.178 3.865 2.227-.32.179-3.848-2.228ZM304.943 377.553l.321-.178 3.865 2.228-.303.196-3.883-2.246ZM297.23 373.097l.321-.178 3.865 2.228-.321.178-3.865-2.228ZM289.5 368.642l.321-.178 3.864 2.228-.302.178-3.883-2.228ZM280.346 364.561l3.847-2.228.321.178-3.848 2.246-.32-.196ZM281.789 364.186l.321-.196 3.865 2.246-.321.178-3.865-2.228ZM274.059 359.712l.32-.178 3.865 2.228-.32.178-3.865-2.228ZM266.348 355.256l.32-.178 3.847 2.228-.32.178-3.847-2.228ZM259.988 351.585l.321-.178 2.493 1.426-.32.196-2.494-1.444Z"/><path fill="#fff" d="m259.989 351.211 2.475-1.426.321.178-2.476 1.444-.32.178-1.051.606-.321-.178 1.051-.606.321-.196Z"/><path fill="#fff" d="m258.617 350.802.321-.197 1.051.606-.321.197-1.051-.606ZM250.887 346.328l.32-.179 3.865 2.228-.32.179-3.865-2.228ZM243.176 341.872l.303-.196 3.882 2.245-.32.179-3.865-2.228ZM235.445 337.398l.321-.178 2.493 1.443-.32.179-2.494-1.444ZM238.258 339.038l.32-.196 1.051.606-.32.196-1.051-.606Z"/><path fill="#fff" d="m238.258 338.663 2.476-1.443.321.178-2.476 1.444-.321.196-1.051.606-.32-.196 1.051-.606.32-.179ZM227.732 332.943l.303-.178 3.865 2.228-.303.178-3.865-2.228ZM220.004 328.487l.32-.178 3.848 2.227-.303.179-3.865-2.228ZM212.291 324.031l.303-.196 3.865 2.228-.321.196-3.847-2.228ZM215.158 326.901l3.847-2.228.303.178-3.829 2.228-.321-.178ZM204.561 319.557l.32-.178 3.847 2.228-.303.178-3.864-2.228ZM196.832 315.102l.321-.196 3.865 2.246-.321.178-3.865-2.228ZM189.102 310.628l.32-.178 3.865 2.228-.321.196-3.864-2.246ZM181.389 306.172l.32-.178 3.865 2.228-.32.178-3.865-2.228ZM427.25 422.823l.98.571-.321.178-.962-.553.303-.196ZM419.217 418.546l.32-.178 3.865 2.228-.32.196-3.865-2.246ZM412.02 413.966l3.847-2.228.32.179-3.847 2.227-.32-.178ZM411.504 414.091l.303-.178 3.865 2.228-.303.178-3.865-2.228ZM403.775 409.635l.321-.197 3.865 2.246-.321.178-3.865-2.227ZM396.062 405.161l.303-.179 3.865 2.228-.32.179-3.848-2.228ZM390.293 401.419l3.847-2.246.321.196-3.847 2.228-.321-.178ZM388.332 400.706l.321-.179 3.847 2.228-.303.178-3.865-2.227ZM380.621 396.25l.303-.196 3.865 2.228-.321.196-3.847-2.228ZM372.873 391.776l.321-.178 3.865 2.227-.321.179-3.865-2.228ZM365.162 387.32l.321-.178 3.865 2.227-.321.179-3.865-2.228ZM357.432 382.864l.32-.196 3.865 2.246-.32.178-3.865-2.228ZM349.719 378.391l.32-.178 3.865 2.228-.32.196-3.865-2.246ZM341.99 373.935l.321-.178 3.865 2.228-.321.178-3.865-2.228ZM334.277 369.479l.321-.196 3.847 2.228-.321.196-3.847-2.228ZM326.547 365.005l.303-.178 3.865 2.228-.303.178-3.865-2.228ZM318.818 360.551l.321-.197 3.865 2.246-.321.178-3.865-2.227ZM311.105 356.077l.303-.179 3.865 2.228-.303.196-3.865-2.245ZM303.375 351.622l.321-.179 3.865 2.228-.321.178-3.865-2.227ZM295.664 347.165l.303-.179 3.865 2.21-.321.196-3.847-2.227ZM287.934 342.71l.32-.196 3.847 2.228-.32.196-3.847-2.228ZM281.629 338.627l3.847-2.228.321.179-3.848 2.228-.32-.179ZM280.221 338.236l.302-.178 3.865 2.227-.32.179-3.847-2.228ZM272.473 333.781l.32-.196 3.865 2.246-.32.178-3.865-2.228ZM264.762 329.306l.32-.178 3.865 2.228-.32.196-3.865-2.246ZM259.9 326.081l3.848-2.246.32.196-3.847 2.228-.321-.178ZM257.031 324.851l.321-.178 3.865 2.228-.321.178-3.865-2.228ZM249.32 320.395l.321-.196 3.865 2.246-.321.178-3.865-2.228ZM241.59 315.922l.32-.178 3.865 2.228-.32.178-3.865-2.228ZM233.877 311.466l.321-.178 3.847 2.228-.321.178-3.847-2.228ZM226.146 307.01l.321-.178 3.847 2.21-.303.196-3.865-2.228ZM218.418 302.537l.321-.179 3.864 2.228-.32.196-3.865-2.245ZM210.705 298.082l.303-.179 3.865 2.228-.303.178-3.865-2.227ZM202.977 293.626l.32-.196 3.865 2.245-.321.179-3.864-2.228ZM219.183 277.585l-.321.178-2.635-1.515-.143-.089.321-.179.142.09 2.636 1.515ZM448.854 410.275l.962.553-.321.178-.962-.552.321-.179ZM440.805 405.999l.32-.196 3.865 2.245-.32.179-3.865-2.228ZM433.092 401.543l.32-.196 3.865 2.245-.32.179-3.865-2.228ZM425.361 397.07l.321-.178 3.865 2.227-.321.196-3.865-2.245ZM417.65 392.613l.321-.178 3.847 2.227-.321.179-3.847-2.228ZM413.322 388.015l3.83-2.228.32.196-3.829 2.228-.321-.196ZM409.92 388.158l.321-.196 3.847 2.228-.303.196-3.865-2.228ZM402.207 383.684l.303-.178 3.865 2.228-.321.178-3.847-2.228ZM394.479 379.229l.302-.196 3.865 2.246-.302.178-3.865-2.228ZM386.748 374.755l.321-.178 3.865 2.228-.321.196-3.865-2.246ZM379.035 370.299l.303-.178 3.865 2.228-.303.178-3.865-2.228ZM371.307 365.844l.32-.197 3.865 2.246-.32.178-3.865-2.227ZM363.576 361.388l.321-.196 3.865 2.228-.321.178-3.865-2.21ZM355.863 356.915l.321-.179 3.847 2.228-.321.178-3.847-2.227ZM348.135 352.459l.32-.196 3.865 2.245-.32.179-3.865-2.228ZM340.404 347.985l.321-.178 3.865 2.228-.321.196-3.865-2.246ZM332.691 343.53l.321-.178 3.865 2.227-.321.179-3.865-2.228ZM324.963 339.074l.32-.196 3.865 2.246-.32.178-3.865-2.228ZM317.25 334.599l.321-.178 3.847 2.228-.321.178-3.847-2.228ZM309.52 330.144l.32-.178 3.847 2.228-.302.178-3.865-2.228ZM301.809 325.688l.302-.196 3.865 2.228-.32.196-3.847-2.228ZM294.078 321.215l.303-.178 3.865 2.228-.303.178-3.865-2.228ZM286.348 316.759l.32-.178 3.865 2.228-.32.178-3.865-2.228ZM278.637 312.303l.303-.196 3.864 2.246-.302.178-3.865-2.228ZM270.906 307.83l.321-.179 3.865 2.228-.321.196-3.865-2.245ZM263.176 303.374l.32-.178 3.865 2.228-.32.178-3.865-2.228ZM255.465 298.919l.32-.196 3.847 2.227-.32.197-3.847-2.228ZM247.734 294.445l.321-.178 3.865 2.227-.321.179-3.865-2.228ZM240.004 289.989l.321-.196 3.864 2.246-.32.178-3.865-2.228ZM232.293 285.516l.321-.178 3.865 2.228-.321.196-3.865-2.246ZM224.562 281.06l.321-.178 3.865 2.228-.321.178-3.865-2.228ZM455.463 414.09l-.321.178-2.796-1.604.303-.196 2.814 1.622ZM446.574 393.879l.303.178-3.83 2.246-.32-.196 3.847-2.228ZM435.051 400.58l3.829-2.227.321.178-3.83 2.228-.32-.179ZM427.393 405.036l3.829-2.227.303.178-3.83 2.228-.302-.179ZM419.717 409.492l3.829-2.228.321.196-3.83 2.228-.32-.196ZM404.363 418.421l3.83-2.228.32.179-3.829 2.245-.321-.196ZM396.686 422.895l3.847-2.246.32.196-3.847 2.228-.32-.178ZM390.381 426.548l2.476-1.426.32.178-2.475 1.444-.321.178-1.051.606-.32-.178 1.051-.606.32-.196ZM381.352 431.807l3.829-2.228.32.178-3.829 2.228-.32-.178ZM373.676 436.262l3.829-2.228.321.196-3.83 2.228-.32-.196ZM368.794 439.114l1.033-.606.321.178-1.033.606-.321.178-2.475 1.444-.321-.178 2.476-1.444.32-.178ZM358.322 445.191l3.847-2.228.303.178-3.829 2.246-.321-.196ZM350.645 449.666l3.847-2.246.32.196-3.847 2.228-.32-.178ZM342.986 454.12l3.83-2.227.32.178-3.847 2.228-.303-.179ZM335.311 458.576l3.847-2.227.303.178-3.83 2.246-.32-.197ZM327.633 463.049l3.829-2.228.321.179-3.83 2.227-.32-.178ZM319.957 467.506l3.829-2.228.321.179-3.829 2.227-.321-.178ZM312.281 471.979l3.847-2.246.321.196-3.847 2.228-.321-.178ZM304.605 476.435l3.848-2.228.32.178-3.847 2.228-.321-.178ZM296.945 480.89l3.83-2.228.32.178-3.829 2.228-.321-.178ZM289.27 485.346l3.847-2.228.32.178-3.847 2.246-.32-.196ZM273.934 494.276l3.829-2.228.32.178-3.847 2.228-.302-.178ZM266.258 498.731l3.829-2.228.321.196-3.83 2.228-.32-.196ZM250.904 507.661l3.847-2.227.303.178-3.829 2.246-.321-.197ZM243.229 512.134l3.847-2.245.32.196-3.847 2.228-.32-.179ZM227.893 521.045l3.829-2.228.32.196-3.829 2.21-.32-.178ZM223.102 523.826l.944-.553.32.196-.944.553-.32-.196ZM220.573 525.662l-2.76 1.622-.321-.197 2.779-1.604.302.179ZM433.591 376.609l-.16.089-2.618 1.533-.321-.196 2.618-1.515.161-.089.32.178ZM424.827 381.332l.321.178-3.829 2.228-.321-.178 3.829-2.228ZM405.645 392.489l3.829-2.228.321.178-3.83 2.228-.32-.178ZM397.986 396.945l3.83-2.228.32.178-3.829 2.228-.321-.178ZM382.633 405.874l3.829-2.246.321.196-3.83 2.228-.32-.178ZM374.957 410.329l3.847-2.227.321.178-3.847 2.228-.321-.179ZM359.621 419.259l3.829-2.228.303.178-3.829 2.228-.303-.178ZM351.945 423.714l3.83-2.228.32.179-3.829 2.227-.321-.178ZM336.592 432.644l3.847-2.228.303.178-3.83 2.228-.32-.178ZM328.916 437.1l3.847-2.228.321.178-3.847 2.246-.321-.196ZM313.58 446.029l3.829-2.228.321.178-3.829 2.228-.321-.178ZM305.904 450.485l3.83-2.228.32.196-3.829 2.21-.321-.178ZM290.553 459.414l3.847-2.227.32.178-3.847 2.228-.32-.179ZM282.875 463.869l3.847-2.227.321.178-3.847 2.246-.321-.197ZM275.217 468.343l3.829-2.245.321.196-3.847 2.228-.303-.179ZM267.541 472.799l3.847-2.228.303.179-3.829 2.227-.321-.178ZM252.188 481.728l3.847-2.228.302.178-3.829 2.228-.32-.178ZM244.529 486.184l3.83-2.228.32.178-3.829 2.228-.321-.178ZM229.176 495.114l3.829-2.228.321.178-3.83 2.228-.32-.178ZM221.5 499.569l3.847-2.228.321.178-3.847 2.228-.321-.178ZM206.164 508.497l3.829-2.227.321.178-3.829 2.228-.321-.179ZM201.373 511.279l.944-.552.321.178-.944.552-.321-.178ZM411.843 364.043l-.16.09-2.618 1.532-.303-.178 2.618-1.533.16-.089.303.178ZM403.099 368.767l.32.178-3.847 2.228-.302-.161 3.829-2.245ZM391.592 375.468l3.829-2.228.303.178-3.829 2.228-.303-.178ZM383.916 379.923l3.829-2.228.321.179-3.829 2.227-.321-.178ZM376.258 384.38l3.829-2.228.303.179-3.829 2.227-.303-.178ZM368.562 388.853l3.848-2.228.302.178-3.829 2.228-.321-.178ZM360.904 393.309l3.83-2.228.302.178-3.829 2.228-.303-.178ZM353.229 397.782l3.847-2.246.302.178-3.847 2.246-.302-.178ZM337.875 406.694l3.847-2.228.303.178-3.829 2.228-.321-.178ZM330.217 411.167l3.829-2.228.303.179-3.829 2.228-.303-.179ZM314.863 420.097l3.83-2.245.32.178-3.847 2.228-.303-.161ZM307.188 424.552l3.847-2.245.302.178-3.847 2.246-.302-.179ZM291.852 433.463l3.829-2.228.32.179-3.847 2.228-.302-.179ZM284.176 437.937l3.829-2.228.303.178-3.829 2.228-.303-.178ZM276.5 442.393l3.829-2.228.321.178-3.847 2.228-.303-.178ZM268.822 446.867l3.847-2.246.303.178-3.847 2.246-.303-.178ZM261.146 451.323l3.848-2.228.302.178-3.847 2.228-.303-.178ZM253.469 455.778l3.847-2.228.303.178-3.83 2.228-.32-.178ZM245.811 460.252l3.829-2.246.32.178-3.847 2.246-.302-.178ZM230.457 469.162l3.829-2.227.321.178-3.829 2.228-.321-.179ZM222.799 473.618l3.829-2.227.303.178-3.829 2.228-.303-.179ZM207.445 482.548l3.83-2.228.32.179-3.847 2.227-.303-.178ZM199.77 487.022l3.847-2.246.303.179-3.848 2.245-.302-.178ZM184.436 495.933l3.829-2.228.303.178-3.83 2.228-.302-.178ZM179.643 498.731l.944-.552.302.178-.944.552-.302-.178ZM177.114 500.549l-2.618 1.515-.16.089-.303-.178.16-.089 2.601-1.515.32.178ZM390.115 351.496l-2.779 1.604-.32-.179 2.778-1.604.321.179ZM381.368 356.219l.321.178-3.847 2.228-.303-.178 3.829-2.228ZM369.863 362.903l3.83-2.228.302.178-3.829 2.228-.303-.178ZM362.188 367.377l3.829-2.228.303.179-3.83 2.228-.302-.179ZM354.527 371.832l3.83-2.228.302.179-3.829 2.228-.303-.179ZM346.834 376.305l3.847-2.245.303.178-3.847 2.246-.303-.179ZM339.158 380.761l3.847-2.228.303.178-3.829 2.228-.321-.178ZM331.498 385.217l3.829-2.228.321.179-3.847 2.227-.303-.178ZM323.822 389.691l3.847-2.246.303.179-3.847 2.245-.303-.178ZM316.146 394.147l3.83-2.228.32.178-3.829 2.228-.321-.178ZM308.486 398.602l3.83-2.228.303.178-3.83 2.228-.303-.178ZM293.135 407.532l3.829-2.228.321.178-3.847 2.228-.303-.178ZM285.457 411.988l3.847-2.228.303.178-3.847 2.228-.303-.178ZM277.781 416.461l3.847-2.246.303.178-3.847 2.246-.303-.178ZM270.123 420.916l3.829-2.228.303.179-3.829 2.228-.303-.179ZM262.447 425.372l3.83-2.227.302.178-3.829 2.228-.303-.179ZM254.77 429.846l3.829-2.228.303.178-3.83 2.228-.302-.178ZM247.094 434.301l3.829-2.228.321.178-3.847 2.228-.303-.178ZM239.416 438.775l3.847-2.246.303.179-3.847 2.227-.303-.16ZM231.74 443.231l3.847-2.228.303.16-3.829 2.246-.321-.178ZM224.082 447.687l3.829-2.228.321.178-3.847 2.228-.303-.178ZM216.404 452.142l3.83-2.228.302.178-3.829 2.228-.303-.178ZM208.729 456.616l3.829-2.228.321.178-3.83 2.228-.32-.178ZM201.07 461.071l3.83-2.228.302.178-3.829 2.228-.303-.178ZM193.375 465.546l3.847-2.246.303.178-3.847 2.246-.303-.178ZM185.717 470.001l3.829-2.228.303.179-3.829 2.228-.303-.179ZM178.041 474.456l3.847-2.227.303.178-3.847 2.228-.303-.179ZM170.363 478.929l3.847-2.245.303.178-3.847 2.245-.303-.178ZM162.688 483.386l3.829-2.228.32.178-3.829 2.228-.32-.178ZM157.896 486.167l.962-.553.303.178-.944.553-.321-.178ZM368.384 338.931l-2.778 1.622-.321-.178 2.779-1.622.32.178ZM359.64 343.654l.303.179-3.829 2.245-.321-.196 3.847-2.228ZM348.117 350.355l3.829-2.228.321.178-3.829 2.228-.321-.178ZM340.439 354.812l3.83-2.228.32.178-3.829 2.228-.321-.178ZM332.781 359.267l3.83-2.228.32.196-3.829 2.228-.321-.196ZM325.088 363.741l3.847-2.228.321.178-3.848 2.228-.32-.178ZM317.428 368.196l3.829-2.228.321.178-3.83 2.228-.32-.178ZM309.752 372.653l3.847-2.228.321.178-3.847 2.246-.321-.196ZM302.076 377.126l3.847-2.246.321.196-3.847 2.228-.321-.178ZM294.416 381.581l3.829-2.227.321.178-3.847 2.228-.303-.179ZM286.74 386.036l3.83-2.227.32.196-3.829 2.228-.321-.197ZM279.064 390.51l3.83-2.228.32.178-3.829 2.228-.321-.178ZM271.387 394.966l3.847-2.228.303.179-3.83 2.245-.32-.196ZM263.711 399.44l3.847-2.246.321.196-3.847 2.228-.321-.178ZM256.033 403.895l3.847-2.228.321.178-3.847 2.228-.321-.178ZM248.375 408.351l3.829-2.228.321.178-3.829 2.246-.321-.196ZM240.699 412.808l3.829-2.21.321.178-3.829 2.228-.321-.196ZM233.023 417.281l3.83-2.228.32.178-3.829 2.228-.321-.178ZM225.346 421.736l3.847-2.228.32.178-3.847 2.246-.32-.196ZM217.67 426.21l3.847-2.246.321.196-3.847 2.228-.321-.178ZM210.012 430.666l3.829-2.228.321.179-3.83 2.228-.32-.179ZM202.334 435.121l3.847-2.227.303.178-3.829 2.245-.321-.196ZM194.658 439.595l3.83-2.228.32.178-3.829 2.228-.321-.178ZM187 444.05l3.829-2.228.303.178-3.829 2.228-.303-.178ZM179.324 448.506l3.83-2.228.32.196-3.829 2.228-.321-.196ZM171.646 452.98l3.83-2.228.32.178-3.847 2.228-.303-.178ZM163.971 457.436l3.829-2.228.321.178-3.83 2.246-.32-.196ZM156.293 461.891l3.847-2.228.321.178-3.847 2.246-.321-.196ZM148.617 466.365l3.847-2.246.321.196-3.847 2.228-.321-.178ZM140.959 470.821l3.829-2.228.321.178-3.829 2.228-.321-.178ZM136.168 473.601l.944-.552.32.196-.943.552-.321-.196ZM133.638 475.437l-2.761 1.622-.32-.196 2.778-1.604.303.178ZM346.638 326.384l-2.779 1.622-.302-.196 2.778-1.604.303.178ZM337.892 331.106l.321.179-3.83 2.228-.321-.179 3.83-2.228ZM326.387 337.79l3.829-2.228.321.197-3.83 2.21-.32-.179ZM318.711 342.246l3.829-2.21.321.178-3.829 2.228-.321-.196ZM311.053 346.72l3.829-2.228.321.178-3.83 2.228-.32-.178ZM303.357 351.175l3.848-2.228.32.178-3.847 2.246-.321-.196ZM295.699 355.649l3.83-2.246.32.196-3.847 2.228-.303-.178ZM288.023 360.105l3.848-2.228.302.178-3.829 2.228-.321-.178ZM272.688 369.034l3.829-2.228.303.178-3.83 2.228-.302-.178ZM265.012 373.49l3.829-2.228.321.178-3.83 2.228-.32-.178ZM249.658 382.419l3.83-2.228.32.179-3.829 2.228-.321-.179ZM241.98 386.874l3.848-2.228.32.179-3.847 2.228-.321-.179ZM234.305 391.33l3.847-2.227.32.178-3.847 2.245-.32-.196ZM226.646 395.804l3.83-2.245.32.196-3.829 2.228-.321-.179ZM218.971 400.26l3.829-2.228.321.178-3.83 2.228-.32-.178ZM211.293 404.715l3.829-2.228.321.196-3.829 2.228-.321-.196ZM203.617 409.189l3.847-2.228.303.178-3.829 2.228-.321-.178ZM195.941 413.644l3.848-2.228.32.178-3.847 2.246-.321-.196ZM188.281 418.119l3.83-2.246.32.196-3.847 2.228-.303-.178ZM180.605 422.575l3.83-2.228.32.178-3.829 2.228-.321-.178ZM165.252 431.485l3.829-2.21.321.179-3.829 2.228-.321-.197ZM157.594 435.959l3.829-2.228.321.179-3.83 2.228-.32-.179ZM149.9 440.415l3.848-2.227.32.178-3.847 2.245-.321-.196ZM142.24 444.888l3.83-2.245.32.196-3.829 2.228-.321-.179ZM134.564 449.344l3.848-2.228.32.178-3.847 2.228-.321-.178ZM119.229 458.274l3.829-2.228.32.178-3.847 2.228-.302-.178ZM114.438 461.053l.943-.552.321.178-.944.553-.32-.179ZM111.909 462.889l-2.76 1.604-.321-.178 2.761-1.622.32.196ZM324.908 313.819l-.143.107-2.636 1.515-.32-.178 2.636-1.533.16-.089.303.178ZM316.163 318.541l.321.178-3.829 2.246-.321-.196 3.829-2.228ZM304.658 325.243l3.829-2.227.321.178-3.829 2.228-.321-.179ZM296.98 329.699l3.83-2.228.32.178-3.829 2.228-.321-.178ZM289.322 334.155l3.83-2.228.302.196-3.829 2.228-.303-.196ZM273.969 343.083l3.829-2.228.321.179-3.847 2.245-.303-.196ZM266.293 347.557l3.829-2.245.321.196-3.829 2.227-.321-.178ZM250.939 356.468l3.83-2.228.32.196-3.829 2.228-.321-.196ZM243.281 360.924l3.83-2.21.32.178-3.829 2.228-.321-.196ZM227.928 369.854l3.829-2.228.321.178-3.83 2.246-.32-.196ZM220.252 374.327l3.847-2.246.321.196-3.847 2.228-.321-.178ZM212.576 378.783l3.847-2.228.321.178-3.847 2.228-.321-.178ZM204.918 383.24l3.829-2.228.321.178-3.847 2.246-.303-.196ZM197.24 387.712l3.83-2.228.32.179-3.829 2.227-.321-.178ZM189.564 392.168l3.83-2.228.32.179-3.829 2.227-.321-.178ZM181.889 396.641l3.829-2.245.321.196-3.83 2.227-.32-.178ZM166.535 405.553l3.847-2.228.321.178-3.847 2.246-.321-.196ZM158.877 410.009l3.829-2.228.321.178-3.829 2.246-.321-.196ZM143.523 418.938l3.83-2.228.32.178-3.829 2.228-.321-.178ZM135.865 423.394l3.83-2.228.32.196-3.829 2.228-.321-.196ZM120.512 432.323l3.829-2.228.321.178-3.847 2.246-.303-.196ZM112.836 436.796l3.847-2.245.303.196-3.829 2.228-.321-.179ZM97.482 445.708l3.848-2.228.302.197-3.829 2.227-.32-.196ZM92.709 448.507l.944-.553.32.178-.961.553-.303-.178ZM90.18 450.324l-2.76 1.622-.32-.196 2.76-1.604.32.178ZM303.179 301.271l-.16.089-2.618 1.533-.321-.196 2.636-1.515.143-.089.32.178ZM294.435 305.994l.32.178-3.847 2.228-.303-.178 3.83-2.228ZM282.928 312.678l3.829-2.228.321.196-3.83 2.228-.32-.196ZM275.252 317.152l3.829-2.228.321.178-3.829 2.228-.321-.178ZM267.576 321.607l3.829-2.228.321.178-3.829 2.228-.321-.178ZM252.223 330.536l3.847-2.227.32.178-3.847 2.228-.32-.179ZM244.564 334.993l3.83-2.228.32.178-3.829 2.228-.321-.178ZM229.211 343.921l3.829-2.228.321.179-3.829 2.227-.321-.178ZM221.553 348.377l3.829-2.228.321.179-3.848 2.228-.302-.179ZM206.199 357.306l3.83-2.228.32.178-3.847 2.228-.303-.178ZM198.523 361.762l3.848-2.228.302.178-3.829 2.246-.321-.196ZM190.848 366.236l3.847-2.246.32.196-3.847 2.228-.32-.178ZM183.17 370.692l3.847-2.228.321.178-3.847 2.228-.321-.178ZM175.512 375.148l3.829-2.228.321.196-3.83 2.228-.32-.196ZM167.836 379.603l3.829-2.21.321.178-3.829 2.228-.321-.196ZM160.158 384.076l3.829-2.227.321.178-3.829 2.228-.321-.179ZM144.805 393.005l3.847-2.245.32.196-3.847 2.228-.32-.179ZM137.146 397.461l3.83-2.228.32.179-3.847 2.227-.303-.178ZM121.795 406.391l3.829-2.228.321.178-3.829 2.228-.321-.178ZM114.135 410.847l3.829-2.228.303.178-3.829 2.228-.303-.178ZM98.764 419.776l3.847-2.228.32.178-3.847 2.228-.32-.178ZM91.106 424.232l3.829-2.228.32.178-3.829 2.246-.32-.196ZM87.117 426.549l.16-.089.32.178-.16.107-.32.178-3.367 1.961-.32-.196 3.366-1.943.32-.196ZM75.752 433.16l3.83-2.227.32.178-3.83 2.228-.32-.179ZM70.963 435.941l.962-.552.32.178-.962.552-.32-.178ZM68.45 437.777l-2.6 1.515-.16.089-.32-.178.16-.089 2.6-1.515.32.178ZM272.704 293.43l.321.196-3.847 2.228-.321-.179 3.847-2.245ZM261.199 300.131l3.83-2.228.32.179-3.829 2.227-.321-.178ZM253.523 304.586l3.83-2.228.32.196-3.829 2.228-.321-.196ZM245.846 309.042l3.829-2.21.321.178-3.83 2.228-.32-.196ZM238.17 313.516l3.847-2.228.321.178-3.847 2.228-.321-.178ZM230.494 317.972l3.847-2.228.321.178-3.847 2.246-.321-.196ZM222.834 322.445l3.829-2.246.321.196-3.847 2.228-.303-.178ZM207.482 331.356l3.83-2.228.32.196-3.829 2.228-.321-.196ZM199.805 335.83l3.847-2.227.303.178-3.83 2.228-.32-.179ZM192.146 340.285l3.83-2.227.32.178-3.829 2.228-.321-.179ZM184.453 344.759l3.847-2.245.321.196-3.847 2.228-.321-.179ZM176.795 349.214l3.829-2.228.321.179-3.829 2.227-.321-.178ZM169.117 353.671l3.847-2.228.321.179-3.847 2.227-.321-.178ZM161.441 358.126l3.848-2.228.32.179-3.847 2.245-.321-.196ZM153.783 362.6l3.83-2.228.32.178-3.829 2.228-.321-.178ZM146.105 367.055l3.83-2.228.32.178-3.829 2.228-.321-.178ZM138.43 371.529l3.829-2.246.321.196-3.848 2.228-.302-.178ZM130.752 375.985l3.847-2.228.303.178-3.829 2.228-.321-.178ZM123.076 380.441l3.847-2.228.321.178-3.847 2.246-.321-.196ZM115.418 384.914l3.829-2.246.321.196-3.847 2.228-.303-.178ZM107.742 389.369l3.83-2.227.32.178-3.829 2.228-.321-.179ZM100.064 393.825l3.83-2.227.32.196-3.829 2.227-.321-.196ZM92.389 398.299l3.829-2.228.32.178-3.829 2.228-.32-.178ZM84.713 402.755l3.847-2.228.32.179-3.846 2.227-.321-.178ZM77.035 407.21l3.847-2.228.32.179-3.846 2.245-.32-.196ZM69.377 411.684l3.83-2.246.32.197-3.83 2.227-.32-.178ZM54.023 420.596l3.83-2.228.32.196-3.829 2.228-.32-.196ZM49.232 423.393l.962-.552.303.178-.944.553-.32-.179ZM46.722 425.211l-2.618 1.533-.143.089-.32-.196.16-.089 2.6-1.515.32.178ZM259.722 276.159l-2.778 1.622-.321-.179 2.779-1.622.32.179ZM250.976 280.882l.321.178-3.847 2.228-.321-.178 3.847-2.228ZM239.471 287.566l3.829-2.228.321.196-3.847 2.228-.303-.196ZM231.793 292.038l3.829-2.227.321.178-3.829 2.228-.321-.179ZM224.117 296.494l3.829-2.227.321.178-3.829 2.228-.321-.179ZM216.441 300.968l3.848-2.245.302.196-3.829 2.228-.321-.179ZM208.764 305.424l3.847-2.228.32.178-3.847 2.228-.32-.178ZM201.088 309.879l3.847-2.228.321.179-3.848 2.245-.32-.196ZM193.43 314.353l3.829-2.246.321.196-3.83 2.228-.32-.178ZM185.752 318.809l3.829-2.228.321.178-3.829 2.228-.321-.178ZM178.076 323.265l3.829-2.228.321.196-3.829 2.228-.321-.196ZM170.418 327.721l3.829-2.21.321.178-3.829 2.228-.321-.196ZM162.723 332.194l3.847-2.228.32.178-3.847 2.228-.32-.178ZM155.064 336.649l3.83-2.228.32.178-3.829 2.246-.321-.196ZM147.389 341.124l3.847-2.246.303.196-3.83 2.228-.32-.178ZM139.711 345.579l3.847-2.227.321.178-3.847 2.228-.321-.179ZM132.053 350.035l3.829-2.228.303.196-3.829 2.228-.303-.196ZM124.377 354.508l3.829-2.228.321.179-3.829 2.227-.321-.178ZM116.699 358.964l3.83-2.228.32.179-3.847 2.245-.303-.196ZM109.023 363.438l3.83-2.246.32.196-3.829 2.228-.321-.178ZM101.348 367.893l3.847-2.228.32.178-3.847 2.228-.32-.178ZM93.67 372.349l3.847-2.228.32.178-3.847 2.246-.32-.196ZM86.012 376.805l3.83-2.21.32.178-3.83 2.228-.32-.196ZM78.336 381.279l3.83-2.228.32.178-3.83 2.228-.32-.178ZM70.66 385.734l3.83-2.228.32.178-3.83 2.228-.32-.178ZM62.982 390.208l3.847-2.246.321.196-3.847 2.228-.32-.178ZM55.307 394.662l3.847-2.227.32.178-3.847 2.228-.32-.179ZM47.648 399.119l3.83-2.227.32.178-3.847 2.245-.303-.196ZM39.97 403.592l3.848-2.245.303.196-3.83 2.228-.32-.179ZM32.295 408.048l3.83-2.228.32.179-3.83 2.227-.32-.178ZM27.504 410.828l.944-.553.32.196-.944.553-.32-.196Z"/><path fill="#5618B8" d="m360.691 383.471-.035 11.799c0 2.566-1.674 5.132-5.041 7.075l.036-11.799c3.366-1.942 5.04-4.509 5.04-7.075ZM116.771 395.198l.036-11.799c0 2.603 1.692 5.205 5.112 7.165l-.036 11.799c-3.42-1.978-5.112-4.58-5.112-7.165Z"/><path fill="#0135AF" d="m355.667 390.547-.035 11.816-104.265 60.616.036-11.799 104.264-60.633ZM226.842 451.18l-.018 11.799-104.941-60.616.035-11.816 104.924 60.633Z"/><path fill="#0135AF" d="m251.403 451.18-.035 11.798c-6.733 3.921-17.775 3.921-24.561 0l.035-11.798c6.786 3.921 17.829 3.921 24.561 0Z"/><path fill="#4673E0" d="M355.597 376.306c6.768 3.921 6.804 10.319.071 14.24L251.404 451.18c-6.733 3.921-17.775 3.921-24.561 0l-104.942-60.634c-6.768-3.921-6.803-10.319-.071-14.24l104.265-60.634c6.732-3.921 17.793-3.921 24.561 0l104.941 60.634Z"/><path fill="#5FD9FF" d="m349.576 373.259-.036 10.783c0 2.334-1.531 4.687-4.595 6.452l.036-10.783c3.063-1.783 4.595-4.117 4.595-6.452ZM126.941 383.953l.036-10.783c0 2.37 1.55 4.741 4.667 6.541l-.036 10.783c-3.117-1.8-4.667-4.171-4.667-6.541Z"/><path fill="#5FD9FF" d="m344.982 379.71-.018 10.783-95.163 55.34.035-10.783 95.146-55.34ZM227.412 435.05l-.018 10.783-95.787-55.34.036-10.783 95.769 55.34ZM249.836 435.05l-.035 10.783c-6.145 3.564-16.226 3.564-22.406 0l.035-10.783c6.163 3.564 16.261 3.564 22.406 0Z"/><path fill="#5FD9FF" d="M344.929 366.717c6.18 3.565 6.216 9.411.071 12.993l-95.163 55.34c-6.145 3.565-16.226 3.565-22.406 0l-95.787-55.34c-6.18-3.564-6.216-9.41-.071-12.993l95.145-55.34c6.145-3.582 16.244-3.582 22.424 0l95.787 55.34Z"/><path fill="#5618B8" d="m360.924 357.343-.036 11.799c0 2.566-1.674 5.133-5.04 7.075l.035-11.799c3.349-1.942 5.041-4.509 5.041-7.075ZM117.004 369.07l.036-11.799c0 2.603 1.692 5.205 5.111 7.165l-.035 11.799c-3.42-1.978-5.13-4.58-5.112-7.165Z"/><path fill="#0135AF" d="m355.882 364.419-.018 11.817L251.6 436.851l.035-11.798 104.247-60.634ZM227.075 425.052l-.036 11.798-104.941-60.615.035-11.817 104.942 60.634Z"/><path fill="#0135AF" d="m251.636 425.052-.036 11.799c-6.732 3.921-17.775 3.921-24.561 0l.036-11.799c6.768 3.921 17.828 3.921 24.561 0Z"/><path fill="#4673E0" d="M355.812 350.178c6.768 3.921 6.804 10.319.071 14.24l-104.264 60.634c-6.733 3.921-17.776 3.921-24.562 0l-104.941-60.634c-6.768-3.921-6.804-10.319-.071-14.24l104.264-60.634c6.733-3.921 17.793-3.921 24.561 0l104.942 60.634Z"/><path fill="#5FD9FF" d="m349.719 346.524-.036 10.783c0 2.335-1.532 4.688-4.595 6.452l.036-10.783c3.063-1.782 4.595-4.117 4.595-6.452ZM127.102 357.218l.035-10.782c0 2.37 1.55 4.74 4.667 6.541l-.036 10.782c-3.135-1.8-4.684-4.17-4.666-6.541Z"/><path fill="#5FD9FF" d="m345.124 352.976-.017 10.782-95.164 55.323.036-10.765 95.145-55.34ZM227.554 408.316l-.017 10.765-95.787-55.323.036-10.782 95.768 55.34Z"/><path fill="#5FD9FF" d="m249.979 408.315-.036 10.783c-6.145 3.565-16.226 3.565-22.406 0l.036-10.783c6.18 3.565 16.261 3.565 22.406 0Z"/><path fill="#5FD9FF" d="M345.071 339.983c6.181 3.565 6.216 9.411.071 12.993l-95.163 55.34c-6.145 3.565-16.225 3.565-22.406 0l-95.786-55.34c-6.181-3.565-6.216-9.411-.072-12.993l95.146-55.34c6.144-3.583 16.243-3.583 22.424 0l95.786 55.34Z"/><path fill="#5618B8" d="m361.066 330.608-.035 11.799c0 2.567-1.675 5.133-5.041 7.076l.036-11.799c3.366-1.943 5.04-4.509 5.04-7.076ZM117.146 342.336l.036-11.799c0 2.602 1.692 5.204 5.112 7.165l-.036 11.799c-3.419-1.979-5.112-4.581-5.112-7.165Z"/><path fill="#0135AF" d="m356.042 337.685-.035 11.816-104.265 60.616.036-11.799 104.264-60.633ZM227.217 398.318l-.036 11.799-104.923-60.616.018-11.816 104.941 60.633Z"/><path fill="#0135AF" d="m251.778 398.317-.035 11.799c-6.733 3.921-17.775 3.921-24.561 0l.035-11.799c6.786 3.904 17.829 3.904 24.561 0Z"/><path fill="#4673E0" d="M355.972 323.443c6.768 3.922 6.804 10.32.071 14.241l-104.264 60.634c-6.733 3.921-17.776 3.921-24.561 0l-104.942-60.634c-6.768-3.921-6.804-10.319-.071-14.241L226.47 262.81c6.732-3.921 17.792-3.921 24.561 0l104.941 60.633Z"/><path fill="#CCD3E2" d="m249.178 261.83-.036 11.799c-5.949-3.44-15.584-3.44-21.497 0l.035-11.799c5.913-3.44 15.549-3.44 21.498 0Z"/><path fill="#CCD3E2" d="m336.986 312.554-.036 11.817-87.807-50.742.035-11.799 87.808 50.724Z"/><path fill="#CCD3E2" d="m341.456 318.827-.036 11.799c0-2.263-1.496-4.545-4.488-6.274l.035-11.798c3.01 1.729 4.506 4.01 4.489 6.273ZM136.008 330.555l.035-11.799c0-2.246 1.479-4.474 4.418-6.185l-.036 11.799c-2.957 1.711-4.417 3.939-4.417 6.185Z"/><path fill="#CCD3E2" d="m345.801 318.845-.036 11.798c0 2.888-1.888 5.757-5.663 7.95l.035-11.799c3.758-2.192 5.646-5.062 5.664-7.949ZM131.662 330.537l.036-11.799c0 2.923 1.905 5.846 5.753 8.056l-.036 11.799c-3.847-2.21-5.753-5.133-5.753-8.056Z"/><path fill="#fff" d="M340.048 310.789c7.641 4.42 7.677 11.603.089 16.023L252.9 377.536c-7.587 4.42-19.984 4.42-27.625 0l-87.807-50.724c-7.641-4.42-7.676-11.603-.089-16.023l87.237-50.724c7.588-4.42 19.984-4.42 27.625 0l87.807 50.724Zm-90.229 64.965 87.237-50.724c5.913-3.44 5.878-9.037-.071-12.459l-87.807-50.724c-5.949-3.439-15.585-3.439-21.498 0l-87.237 50.724c-5.896 3.44-5.878 9.019.071 12.459l87.807 50.724c5.931 3.422 15.585 3.422 21.498 0Z"/><path fill="#CCD3E2" d="m227.679 261.83-.035 11.799-87.238 50.742.036-11.817 87.237-50.724ZM340.138 326.794l-.035 11.817-87.238 50.724.036-11.799 87.237-50.742ZM225.257 377.536l-.036 11.799-87.807-50.724.036-11.817 87.807 50.742Z"/><path fill="#CCD3E2" d="m252.9 377.536-.035 11.799c-7.588 4.42-19.984 4.42-27.625 0l.036-11.799c7.623 4.402 20.019 4.402 27.624 0ZM314.33 326.723v2.352c0 2.567-1.675 5.133-5.041 7.076v-2.353c3.366-1.942 5.041-4.509 5.041-7.075ZM163.133 329.004v-2.353c0 2.602 1.692 5.205 5.094 7.165v2.353c-3.402-1.979-5.094-4.563-5.094-7.165ZM309.288 333.798v2.37l-58.046 33.757v-2.371l58.046-33.756ZM226.681 367.572v2.353l-58.437-33.757v-2.37l58.437 33.774Z"/><path fill="#CCD3E2" d="M251.243 367.555v2.352c-6.733 3.921-17.793 3.921-24.561 0v-2.352c6.768 3.921 17.828 3.921 24.561 0Z"/><path fill="#fff" d="M309.235 319.558c6.768 3.921 6.804 10.319.071 14.24l-58.045 33.757c-6.733 3.921-17.793 3.921-24.561 0l-58.438-33.757c-6.768-3.921-6.803-10.319-.071-14.24l58.046-33.757c6.732-3.921 17.793-3.921 24.561 0l58.437 33.757ZM282.144 279.136c3.989 1.069 7.997 1.604 11.773 1.497l-1.443 2.709c-3.776.125-7.783-.41-11.773-1.497.481-.909.962-1.8 1.443-2.709Z"/><path fill="#fff" d="M293.917 280.632c7.606-.232 12.86-3.083 15.211-7.486l-1.443 2.71c-2.351 4.402-7.605 7.254-15.21 7.485.427-.82.997-1.907 1.442-2.709ZM252.275 258.282c5.914 9.607 17.882 17.645 29.869 20.853-.481.909-.962 1.8-1.443 2.709-11.986-3.208-23.955-11.246-29.868-20.853-3.919-6.362-4.453-12.226-2.138-16.575l1.443-2.709c-2.315 4.349-1.781 10.213 2.137 16.575Z"/><path fill="#E8EFF9" d="m248.695 244.398 1.443-2.709c2.351-4.403 7.605-7.254 15.193-7.486l-1.443 2.709c-7.587.25-12.842 3.101-15.193 7.486Z"/><path fill="#093D9D" d="m243.904 239.8 1.443-2.709c3.099-5.828 10.063-9.589 20.126-9.909l-1.442 2.709c-10.064.303-17.01 4.081-20.127 9.909Z"/><path fill="#E8EFF9" d="M263.905 236.913c15.122-.481 33.77 9.535 41.642 22.35 7.89 12.815 2.031 23.58-13.073 24.061-15.104.481-33.752-9.535-41.642-22.35-7.89-12.797-2.048-23.58 13.073-24.061Z"/><path fill="#E8EFF9" d="m309.128 273.146-1.443 2.709c2.316-4.349 1.781-10.212-2.137-16.575-7.89-12.815-26.538-22.831-41.642-22.35l1.443-2.709c15.121-.481 33.769 9.535 41.642 22.35 3.918 6.362 4.452 12.226 2.137 16.575Z"/><path fill="#093D9D" d="m323.43 278.707-1.442 2.709c3.063-5.756 2.368-13.509-2.832-21.94-10.437-16.967-35.123-30.209-55.125-29.586l1.443-2.709c20.001-.623 44.687 12.619 55.124 29.586 5.201 8.431 5.896 16.184 2.832 21.94Z"/><path fill="#fff" d="M264.031 229.891c20.001-.624 44.687 12.619 55.124 29.586 10.437 16.968 2.69 31.226-17.312 31.85-20.002.624-44.687-12.619-55.124-29.586-10.438-16.968-2.672-31.226 17.312-31.85Zm28.444 53.451c15.121-.481 20.963-11.246 13.073-24.061-7.89-12.814-26.538-22.831-41.642-22.35-15.104.482-20.946 11.247-13.073 24.061 7.89 12.815 26.538 22.814 41.642 22.35Z"/><path fill="#032668" d="m249.318 244.487.481-.909c-2.582 4.866-2.012 11.425 2.369 18.536 8.817 14.312 29.709 25.522 46.575 25.005l-.48.909c-16.867.535-37.759-10.675-46.576-25.005-4.363-7.111-4.951-13.67-2.369-18.536ZM315.752 278.743l-.481.909c-2.618 4.937-8.514 8.127-17.009 8.395l.481-.909c8.513-.268 14.391-3.458 17.009-8.395ZM247.109 243.311l.481-.909c2.797-5.258 9.066-8.662 18.132-8.947l-.481.909c-9.066.285-15.335 3.689-18.132 8.947Z"/><path fill="#032668" d="m317.962 279.919-.481.909c2.761-5.186 2.138-12.191-2.529-19.765-9.404-15.275-31.703-27.252-49.71-26.681l.481-.909c18.007-.571 40.306 11.406 49.71 26.681 4.667 7.574 5.29 14.579 2.529 19.765Z"/><path fill="#0033AD" d="M265.242 234.364c18.006-.57 40.305 11.407 49.71 26.681 9.404 15.274 2.404 28.16-15.603 28.713-18.006.57-40.306-11.407-49.692-26.681-9.422-15.256-2.422-28.142 15.585-28.713Zm33.039 53.665c16.884-.535 23.439-12.601 14.622-26.913-8.816-14.311-29.708-25.54-46.593-25.005-16.867.535-23.439 12.601-14.622 26.93 8.816 14.312 29.726 25.523 46.593 24.988Z"/><path fill="#03277E" d="m263.568 262.061.481-.909 5.486-1.497-.481.891-5.486 1.515ZM282.857 261.455l.481-.909 3.456 9.678-.481.909-3.456-9.678ZM305.459 270.526l.481-.909 2.707 7.593-.481.909-2.707-7.593Z"/><path fill="#03277E" d="m286.312 271.132.481-.909 19.147-.606-.481.909-19.147.606ZM286.811 255.769l.48-.891 2.423 3.921-.481.891-2.422-3.921ZM281.324 257.284l.481-.909 5.486-1.497-.481.891-5.486 1.515Z"/><path fill="#205ED2" d="m275.661 241.903 5.664 15.381 5.486-1.514 2.422 3.921-6.376 1.764 3.455 9.678 19.147-.606 2.707 7.592-32.255.999-5.326-14.384-4.595 1.248-2.422-3.921 5.486-1.515-6.644-18.233 13.251-.41Z"/><path fill="#03277E" d="m275.662 241.903.481-.909 5.664 15.381-.481.909-5.664-15.381ZM262.41 242.313l.481-.909 13.251-.41-.481.909-13.251.41Z"/><path fill="#fff" d="M271.244 309.025c-.036-.107-.072-.232-.107-.339 0-1.158 0-2.299.018-3.457.035.106.071.231.106.338 0 1.159 0 2.317-.017 3.458Z"/><path fill="#fff" d="M271.244 309.024c-.018-.089 0-.196 0-.285 0-1.052 0-2.121.018-3.173.392 1.266.588 2.549.606 3.832 0 1.159 0 2.299-.018 3.458 0-1.265-.196-2.549-.606-3.832ZM207.393 297.422c-7.285 4.242-10.936 9.785-10.954 15.346l.018-3.458c.018-5.561 3.669-11.104 10.954-15.346 14.676-8.537 38.56-8.537 53.326 0 5.539 3.209 9.012 7.147 10.419 11.282 0 1.159 0 2.299-.018 3.458-1.407-4.135-4.88-8.074-10.419-11.282-14.765-8.555-38.65-8.537-53.326 0Z"/><path fill="#fff" d="M271.85 312.982v-.107c0-1.159 0-2.3.017-3.458v.107c0 1.034-.017 2.406-.017 3.458Z"/><path fill="#E8EFF9" d="m271.868 309.506-.017 3.458c-.018 5.56-3.669 11.103-10.954 15.345-14.676 8.537-38.543 8.537-53.326 0-7.427-4.295-11.149-9.927-11.131-15.559l.017-3.458c-.017 5.632 3.705 11.264 11.132 15.559 14.783 8.538 38.65 8.538 53.326 0 7.284-4.224 10.936-9.784 10.953-15.345Z"/><path fill="#E8EFF9" d="M260.736 293.946c14.783 8.537 14.854 22.386.178 30.905-14.676 8.537-38.542 8.537-53.325 0-14.765-8.537-14.854-22.368-.178-30.905 14.676-8.519 38.542-8.537 53.325 0Z"/><path fill="#0C3581" d="m284.816 310.967-.018 3.457c-.018 7.361-4.862 14.704-14.498 20.319-19.431 11.299-51.028 11.299-70.584 0-9.832-5.686-14.747-13.154-14.73-20.604l.018-3.457c-.018 7.45 4.898 14.917 14.73 20.603 19.556 11.3 51.152 11.3 70.584 0 9.654-5.614 14.48-12.957 14.498-20.318Z"/><path fill="#fff" d="M270.085 290.382c19.557 11.3 19.664 29.622.232 40.904-19.432 11.282-51.028 11.299-70.584 0-19.557-11.3-19.664-29.622-.232-40.904 19.432-11.3 51.028-11.3 70.584 0Zm-62.498 34.47c14.783 8.537 38.65 8.537 53.326 0 14.676-8.538 14.605-22.368-.178-30.905-14.765-8.538-38.65-8.538-53.326 0-14.676 8.537-14.605 22.385.178 30.905Z"/><path fill="#032668" d="M276.32 310.735v1.159c.018-6.309-4.132-12.619-12.432-17.413-16.492-9.535-43.262-9.535-59.648 0-8.14 4.741-12.218 10.943-12.236 17.163v-1.158c.018-6.22 4.096-12.423 12.236-17.164 16.404-9.535 43.156-9.535 59.648 0 8.3 4.795 12.45 11.104 12.432 17.413Z"/><path fill="#032668" d="M279.152 310.735v1.158c-.018 6.63-4.363 13.261-13.055 18.322-17.49 10.177-46.041 10.177-63.656 0-8.852-5.115-13.287-11.852-13.269-18.571v-1.159c-.018 6.72 4.399 13.457 13.269 18.572 17.615 10.177 46.166 10.177 63.656 0 8.674-5.044 13.037-11.674 13.055-18.322Z"/><path fill="#0033AD" d="M265.883 292.164c17.615 10.177 17.704 26.716.214 36.893-17.491 10.177-46.041 10.177-63.656 0-17.597-10.177-17.704-26.716-.214-36.893 17.508-10.177 46.041-10.177 63.656 0Zm-61.465 35.735c16.51 9.535 43.262 9.535 59.648 0 16.404-9.535 16.315-25.041-.196-34.577-16.493-9.535-43.262-9.535-59.648 0-16.368 9.536-16.297 25.042.196 34.577Z"/><path fill="#03277E" d="M226.04 315.691v1.159l-6.804-14.989v-1.159l6.804 14.989Z"/><path fill="#205ED2" d="m251.919 319.594-25.879-3.903-6.804-14.989 42.924-6.007-10.241 24.899Z"/><path fill="#03277E" d="M251.92 319.594v1.14l-25.879-3.885v-1.159l25.879 3.904ZM262.161 294.695v1.141l-10.241 24.899v-1.141l10.241-24.899ZM250.744 321.929v1.14l-40.93 3.208v-1.14l40.93-3.208Z"/><path fill="#205ED2" d="m222.638 317.669 28.106 4.26-40.93 3.208 5.415-23.741 7.409 16.273Z"/><path fill="#fff" d="M193.128 234.649c3.847 1.48 7.765 2.442 11.523 2.709l-1.709 2.531c-3.759-.285-7.677-1.229-11.524-2.709.57-.855 1.14-1.693 1.71-2.531Z"/><path fill="#fff" d="M165.664 210.803c4.862 10.159 15.905 19.392 27.464 23.847-.57.838-1.14 1.694-1.71 2.531-11.559-4.455-22.602-13.688-27.464-23.847-3.224-6.737-3.135-12.618-.374-16.682l1.71-2.531c-2.761 4.064-2.85 9.945.374 16.682ZM204.651 237.359c7.57.57 13.091-1.711 15.888-5.846l-1.71 2.531c-2.797 4.134-8.318 6.398-15.888 5.846.517-.767 1.194-1.765 1.71-2.531Z"/><path fill="#E8EFF9" d="m163.561 196.652 1.709-2.531c2.797-4.134 8.318-6.398 15.888-5.845l-1.71 2.53c-7.57-.552-13.091 1.711-15.887 5.846Z"/><path fill="#093D9D" d="m155.387 190.093 1.71-2.531c3.686-5.454 10.989-8.466 21.016-7.717l-1.709 2.53c-10.028-.748-17.33 2.264-21.017 7.718Z"/><path fill="#E8EFF9" d="m220.539 231.513-1.71 2.531c2.761-4.064 2.85-9.945-.374-16.682-6.483-13.564-23.956-25.451-39.006-26.574l1.71-2.531c15.05 1.123 32.505 13.011 39.006 26.574 3.224 6.737 3.134 12.618.374 16.682Z"/><path fill="#fff" d="M176.403 182.375c19.912 1.479 43.031 17.217 51.616 35.164 8.585 17.948-.606 31.28-20.518 29.8-19.913-1.479-43.031-17.217-51.616-35.164-8.585-17.948.605-31.279 20.518-29.8Zm26.538 57.514c15.05 1.123 21.996-8.965 15.513-22.51-6.483-13.563-23.955-25.451-39.005-26.574-15.051-1.123-21.997 8.965-15.514 22.528 6.501 13.546 23.956 25.434 39.006 26.556Z"/><path fill="#E8EFF9" d="M179.449 190.806c15.05 1.122 32.505 13.01 39.006 26.574 6.483 13.545-.463 23.633-15.513 22.51-15.05-1.123-32.505-13.011-39.006-26.556-6.483-13.564.463-23.633 15.513-22.528Z"/><path fill="#093D9D" d="m230.227 237.073-1.71 2.531c3.651-5.382 3.758-13.171-.499-22.082-8.585-17.948-31.703-33.686-51.616-35.165l1.71-2.531c19.913 1.479 43.031 17.217 51.616 35.165 4.274 8.911 4.15 16.7.499 22.082Z"/><path fill="#032668" d="m159.946 195.743.57-.838c-3.082 4.563-3.189 11.122.409 18.643 7.249 15.15 26.806 28.481 43.619 29.729l-.57.837c-16.813-1.247-36.37-14.579-43.619-29.728-3.598-7.504-3.491-14.08-.409-18.643Z"/><path fill="#032668" d="m222.3 236.735-.57.838c-3.117 4.616-9.297 7.165-17.757 6.541l.57-.838c8.478.624 14.64-1.925 17.757-6.541ZM157.879 194.335l.57-.838c3.33-4.919 9.92-7.646 18.951-6.986l-.57.837c-9.048-.659-15.62 2.068-18.951 6.987Z"/><path fill="#032668" d="m224.367 238.126-.569.838c3.295-4.866 3.401-11.87-.428-19.909-7.73-16.147-28.622-30.388-46.558-31.707l.57-.837c17.936 1.336 38.828 15.559 46.558 31.707 3.847 8.038 3.722 15.042.427 19.908Z"/><path fill="#0033AD" d="M176.812 187.366c17.935 1.337 38.828 15.559 46.557 31.707 7.73 16.147-.569 28.213-18.505 26.877-17.935-1.337-38.828-15.56-46.558-31.707-7.729-16.148.57-28.214 18.506-26.877Zm27.161 56.748c16.814 1.248 24.597-10.052 17.348-25.202-7.249-15.149-26.823-28.463-43.636-29.71-16.814-1.248-24.597 10.052-17.348 25.183 7.267 15.15 26.823 28.481 43.636 29.729Z"/><path fill="#03277E" d="m192.112 230.087-.57.837c.962-1.425.998-3.457-.125-5.828-.463-.98-1.139-1.871-1.905-2.762l.57-.838c.765.891 1.442 1.782 1.905 2.763 1.122 2.37 1.087 4.42.125 5.828ZM172.219 217.861l.57-.838c.979-1.444 2.885-2.246 5.539-2.032 2.761.214 6.002 1.586 8.513 3.458l-.569.838c-2.53-1.872-5.753-3.262-8.514-3.458-2.636-.214-4.56.588-5.539 2.032ZM190.136 216.382l-.57.838c-.374.552-1.425.944-3.277 2.049l.57-.838c1.852-1.122 2.921-1.497 3.277-2.049ZM191.275 212.211l.57-.838c3.171 6.63.748 4.242 8.763 8.092l-.57.837c-7.997-3.849-5.574-1.461-8.763-8.091ZM200.164 220.124l.57-.837c1.015-1.498 2.939-2.424 5.717-2.211 5.183.393 11.274 4.599 13.519 9.286 1.14 2.388 1.122 4.456.16 5.882l-.57.837c.962-1.425.997-3.493-.16-5.881-2.244-4.67-8.336-8.894-13.519-9.286-2.778-.214-4.702.713-5.717 2.21ZM175.691 197.168l.57-.838c.98-1.461 2.921-2.245 5.557-2.049l-.57.837c-2.636-.196-4.577.606-5.557 2.05Z"/><path fill="#03277E" d="m195.586 209.377-.57.838c.962-1.426.98-3.476-.142-5.81-2.298-4.777-8.336-8.894-13.644-9.286l.57-.838c5.308.392 11.346 4.509 13.644 9.286 1.139 2.335 1.104 4.402.142 5.81Z"/><path fill="#205ED2" d="M181.248 195.118c5.308.392 11.346 4.509 13.643 9.286 1.977 4.135.375 7.361-3.597 7.788 3.17 6.631.748 4.242 8.763 8.092.979-1.604 2.938-2.602 5.842-2.388 5.183.392 11.274 4.598 13.518 9.285 2.28 4.777-.107 8.27-5.29 7.878-5.307-.392-11.363-4.509-13.643-9.286-.463-.98-.766-1.835-.819-2.673-3.705-1.8-5.112-2.656-6.145-2.745-1.033-.071-1.71.642-3.972 1.979.766.891 1.443 1.782 1.906 2.762 2.28 4.777-.232 8.27-5.415 7.878-5.307-.392-11.363-4.509-13.643-9.286-2.244-4.669.107-8.27 5.415-7.878 2.761.214 6.002 1.587 8.513 3.458 4.329-2.602 4.293-1.248 1.425-7.218-4.826-1.087-9.867-4.812-11.897-9.054-2.316-4.795.213-8.27 5.396-7.878Z"/><path fill="#fff" d="M306.333 180.699c2.832-6.898 2.404-12.761-.57-16.682l1.852 2.424c2.974 3.903 3.402 9.766.57 16.682-5.7 13.902-22.459 26.77-37.421 28.748l-1.852-2.424c14.961-1.978 31.721-14.846 37.421-28.748ZM252.721 204.528c3.028 3.957 8.656 5.918 16.19 4.919l1.852 2.424c-7.534.998-13.18-.962-16.19-4.919-.57-.73-1.3-1.711-1.852-2.424Z"/><path fill="#E8EFF9" d="m305.762 164.017 1.853 2.424c-3.028-3.956-8.656-5.917-16.19-4.919l-1.853-2.424c7.516-.998 13.162.963 16.19 4.919Z"/><path fill="#093D9D" d="m320.811 157.119 1.853 2.424c-3.99-5.24-11.471-7.824-21.427-6.505l-1.852-2.424c9.956-1.319 17.419 1.265 21.426 6.505Z"/><path fill="#E8EFF9" d="M291.424 161.521c14.961-1.978 22.477 7.7 16.76 21.602-5.7 13.901-22.46 26.77-37.421 28.748-14.961 1.978-22.477-7.7-16.76-21.584 5.7-13.901 22.46-26.787 37.421-28.766Z"/><path fill="#E8EFF9" d="m254.573 206.952-1.852-2.424c-2.975-3.903-3.402-9.767-.57-16.664 5.699-13.902 22.459-26.77 37.42-28.749l1.853 2.424c-14.962 1.978-31.722 14.847-37.421 28.749-2.85 6.897-2.422 12.761.57 16.664Z"/><path fill="#093D9D" d="m252.454 213.172-1.852-2.423c-3.954-5.169-4.506-12.94-.766-22.065 7.552-18.393 29.726-35.432 49.532-38.052l1.852 2.424c-19.805 2.62-41.98 19.658-49.532 38.052-3.74 9.125-3.17 16.878.766 22.064Z"/><path fill="#fff" d="M301.238 153.037c19.805-2.619 29.744 10.177 22.192 28.588-7.552 18.394-29.726 35.432-49.532 38.052-19.805 2.62-29.744-10.177-22.192-28.588 7.552-18.393 29.726-35.432 49.532-38.052Zm-30.474 58.834c14.961-1.978 31.721-14.847 37.42-28.748 5.699-13.902-1.799-23.58-16.76-21.602-14.961 1.979-31.721 14.847-37.42 28.749-5.718 13.919 1.798 23.579 16.76 21.601Z"/><path fill="#032668" d="m315.968 164.747.623.802c3.331 4.385 3.812 10.943.659 18.661-6.376 15.523-25.149 29.942-41.855 32.152l-.624-.802c16.707-2.21 35.48-16.629 41.856-32.152 3.17-7.718 2.689-14.276-.659-18.661ZM257.282 210.856l-.624-.802c3.384 4.438 9.689 6.63 18.096 5.507l.623.802c-8.406 1.123-14.711-1.069-18.095-5.507ZM317.963 163.232l.624.802c-3.598-4.723-10.331-7.057-19.307-5.881l-.624-.802c8.977-1.176 15.692 1.158 19.307 5.881Z"/><path fill="#032668" d="m255.304 212.37-.623-.802c-3.562-4.67-4.079-11.656-.695-19.89 6.804-16.576 26.841-31.975 44.67-34.327l.623.802c-17.828 2.352-37.866 17.751-44.669 34.327-3.384 8.234-2.868 15.22.694 19.89Z"/><path fill="#0033AD" d="M299.279 158.171c17.828-2.353 26.805 9.214 20.001 25.79-6.803 16.557-26.823 31.956-44.652 34.309-17.828 2.352-26.805-9.215-20.019-25.772 6.786-16.593 26.841-31.974 44.67-34.327Zm-23.885 58.21c16.707-2.21 35.48-16.629 41.856-32.153 6.376-15.524-2.031-26.378-18.755-24.168-16.724 2.21-35.497 16.629-41.873 32.171-6.359 15.506 2.048 26.342 18.772 24.15Z"/><path fill="#03277E" d="m293.791 193.514-.623-.82 10.081-13.759.605.802-10.063 13.777ZM314.043 171.199l.623.802c-.605-.802-1.87-1.14-3.74-.891l-.623-.802c1.87-.249 3.134.089 3.74.891Z"/><path fill="#03277E" d="m268.59 196.828-.606-.802 25.185-3.333.623.82-25.202 3.315Z"/><path fill="#03277E" d="m262.338 205.455-.623-.802 6.269-8.627.606.802-6.252 8.627ZM278.67 183.069l-.623-.82 6.216-8.52.623.82-6.216 8.52Z"/><path fill="#03277E" d="m284.887 174.55-.623-.819 26.039-3.422.606.802-26.022 3.439Z"/><path fill="#205ED2" d="M310.908 171.11c2.28-.303 3.634.268 4.043 1.462.41 1.212-.124 3.083-1.674 5.169l-11.363 15.523c-1.55 2.103-3.883 4.207-6.359 5.793-2.458 1.586-4.951 2.655-7.213 2.958l-26.022 3.44 6.27-8.626 25.184-3.333 10.081-13.777-25.184 3.333 6.216-8.52 26.021-3.422Z"/><path fill="#205ED2" fill-rule="evenodd" d="m271.688 186.295 17.241-2.959-4.88 8.929-17.633 2.549 5.272-8.519Z" clip-rule="evenodd"/><path fill="#fff" d="M208.604 104.952c6.037 10.462 14.391 19.588 23.617 24.934l-3.741 2.175c-9.243-5.329-17.579-14.472-23.617-24.934 1.247-.713 2.494-1.444 3.741-2.175Z"/><path fill="#fff" d="M198.879 72.105c-.035 10.622 3.687 22.403 9.725 32.847-1.247.731-2.494 1.444-3.74 2.175-6.038-10.462-9.761-22.243-9.725-32.848.036-10.551 3.758-17.983 9.76-21.477l3.741-2.174c-6.003 3.493-9.725 10.925-9.761 21.477ZM232.238 129.887c9.298 5.364 17.722 5.863 23.813 2.335l-3.74 2.174c-6.091 3.547-14.516 3.048-23.813-2.335a424.43 424.43 0 0 0 3.74-2.174Z"/><path fill="#E8EFF9" d="m204.898 52.802 3.741-2.175c6.091-3.546 14.516-3.03 23.813 2.335l-3.74 2.175c-9.298-5.365-17.722-5.864-23.814-2.335Z"/><path fill="#093D9D" d="m205.061 51.911 3.74-2.174c8.05-4.688 19.2-4.028 31.507 3.083l-3.74 2.175c-12.307-7.112-23.457-7.771-31.507-3.084Z"/><path fill="#E8EFF9" d="M228.712 55.137c18.47 10.676 33.413 36.537 33.342 57.8-.053 21.245-15.086 29.8-33.556 19.124-18.469-10.676-33.413-36.537-33.341-57.782.053-21.245 15.085-29.818 33.555-19.142Z"/><path fill="#E8EFF9" d="m256.035 132.221-3.741 2.175c6.003-3.494 9.725-10.908 9.761-21.459.053-21.245-14.872-47.124-33.342-57.8l3.74-2.174c18.47 10.676 33.413 36.537 33.342 57.8-.036 10.551-3.758 17.965-9.76 21.458Z"/><path fill="#093D9D" d="m271.511 157.726-3.74 2.174c7.944-4.616 12.877-14.454 12.913-28.409.071-28.107-19.681-62.363-44.135-76.496l3.74-2.175c24.454 14.134 44.207 48.372 44.135 76.496-.035 13.956-4.969 23.794-12.913 28.41Z"/><path fill="#fff" d="M236.549 54.994c24.455 14.134 44.207 48.372 44.136 76.496-.072 28.107-19.966 39.46-44.421 25.326-24.454-14.133-44.206-48.371-44.135-76.496.089-28.106 19.984-39.46 44.42-25.326Zm-8.05 77.066c18.47 10.676 33.502 2.104 33.555-19.124.054-21.244-14.872-47.123-33.341-57.8-18.47-10.675-33.503-2.102-33.556 19.143-.071 21.245 14.872 47.106 33.342 57.781Z"/><path fill="#032668" d="m208.479 61.624 1.247-.73c-6.715 3.903-10.901 12.208-10.936 24.007-.071 23.722 16.671 52.72 37.314 64.644l-1.247.73c-20.643-11.923-37.367-40.921-37.314-64.643.036-11.799 4.221-20.105 10.936-24.008Z"/><path fill="#032668" d="m262.712 152.129-1.247.731c-6.804 3.957-16.226 3.404-26.61-2.584l1.247-.731c10.384 6.006 19.806 6.541 26.61 2.584ZM206.697 58.56l1.247-.731c7.267-4.224 17.33-3.636 28.408 2.762l-1.247.731c-11.078-6.399-21.141-6.987-28.408-2.763Z"/><path fill="#032668" d="m264.493 155.177-1.246.731c7.177-4.171 11.63-13.029 11.666-25.594.071-25.326-17.793-56.267-39.808-68.992l1.247-.731c22.014 12.725 39.879 43.666 39.807 68.992-.035 12.583-4.488 21.441-11.666 25.594Z"/><path fill="#0033AD" d="M235.106 61.322c22.014 12.726 39.878 43.666 39.807 68.993-.071 25.308-18.043 35.556-40.057 22.831-22.014-12.726-39.878-43.666-39.807-68.975.071-25.326 18.042-35.557 40.057-22.849Zm-.25 88.954c20.643 11.924 37.474 2.317 37.545-21.405.072-23.722-16.653-52.738-37.295-64.644-20.643-11.905-37.474-2.317-37.546 21.406-.071 23.704 16.653 52.72 37.296 64.643Z"/><path fill="#03277E" d="m211.24 113.097 1.247-.731 7.231 4.189-1.247.713-7.231-4.171ZM231.545 134.502l1.247-.713-.035 7.201-1.247.712.035-7.2Z"/><path fill="#205ED2" d="m242.623 140.205 1.247-.713-.018 7.896-1.247.73.018-7.913Z"/><path fill="#03277E" d="m228.73 123.131 1.247-.731 6.929 4.011-1.247.712-6.929-3.992Z"/><path fill="#205ED2" d="m228.766 108.605 1.247-.712-.036 14.507-1.247.731.036-14.526Z"/><path fill="#03277E" d="m243.354 127.819-1.246.731c-.143.071-.285.142-.428.196-1.318.446-3.313-.089-6.02-1.604l1.247-.731c2.707 1.533 4.702 2.05 6.02 1.604.16-.053.303-.125.427-.196ZM228.803 99.248l1.246-.713 5.949 3.44-1.246.713-5.949-3.44ZM228.838 86.88l1.247-.732-.036 12.387-1.246.713.035-12.369Z"/><path fill="#03277E" d="m234.752 102.689 1.247-.731c.338.196.659.356.961.535 2.28 1.212 3.972 1.693 5.077 1.479l-1.247.731c-1.104.214-2.797-.268-5.076-1.48-.303-.16-.624-.338-.962-.534Z"/><path fill="#205ED2" d="m245.74 113.116 1.247-.731v.392l-1.247.713v-.374ZM242.623 103.775l-1.247.731a1.62 1.62 0 0 1-.552.214l1.247-.731c.196-.053.374-.124.552-.214Z"/><path fill="#03277E" d="m211.365 67.078 1.247-.713 13.34 7.718-1.247.713-13.34-7.718ZM252.098 139.351l-1.246.73c2.333-1.354 3.526-4.206 3.526-8.537.018-3.582-.677-6.844-2.012-9.803l1.246-.73c1.354 2.941 2.031 6.22 2.013 9.802 0 4.331-1.193 7.183-3.527 8.538Z"/><path fill="#03277E" d="m245.74 113.49 1.247-.731c3.063 2.548 5.29 5.311 6.626 8.252l-1.247.731c-1.336-2.923-3.562-5.686-6.626-8.252ZM231.688 78.841l1.246-.73 1.977 1.14-1.247.713-1.976-1.123Z"/><path fill="#03277E" d="m233.664 79.964 1.247-.73c.73.427 1.442.855 2.137 1.283l-1.247.73c-.694-.427-1.407-.855-2.137-1.283ZM224.723 67.613l1.246-.731 7 4.046-1.247.713-6.999-4.028Z"/><path fill="#03277E" d="m231.723 71.64 1.247-.712-.036 7.182-1.246.731.035-7.2ZM251.528 112.348l-1.247.731c.321-.178.606-.41.891-.677 1.371-1.319 2.048-3.69 2.066-6.987.018-4.901-1.532-9.375-4.613-13.42-1.514-1.943-3.455-3.922-5.824-5.829l1.247-.73c2.386 1.924 4.31 3.885 5.824 5.828 3.081 4.045 4.631 8.519 4.613 13.42-.018 3.315-.695 5.668-2.066 6.987a5.117 5.117 0 0 1-.891.677ZM242.801 78.057l1.247-.73-.018 8.09-1.247.731.018-8.091Z"/><path fill="#03277E" d="m235.82 74.012 1.247-.73 6.982 4.045-1.247.73-6.982-4.045Z"/><path fill="#205ED2" d="M252.366 121.742c1.353 2.941 2.03 6.22 2.012 9.802-.017 5.08-1.638 8.11-4.826 9.108-1.906.588-4.221.463-6.929-.428l-.017 7.896-7-4.046.018-7.201-4.097-2.37-.018 7.2-6.981-4.028.017-7.2-13.34-7.717.036-9.66 7.231 4.17.107-36.323-7.231-4.17.035-9.678 13.34 7.717.018-7.183 6.982 4.028-.018 7.183 1.959 1.14c.731.428 1.443.856 2.138 1.284l.018-7.236 6.999 4.046-.018 8.091c2.387 1.925 4.311 3.886 5.825 5.828 3.081 4.046 4.63 8.52 4.613 13.421-.018 3.315-.695 5.668-2.066 6.987-1.354 1.336-3.171 1.586-5.433.712v.393c3.064 2.548 5.29 5.311 6.626 8.234Zm-9.707 6.327c.695-.749 1.051-2.05 1.051-3.868 0-1.604-.339-3.101-1.033-4.562-1.211-2.585-3.527-4.919-6.982-7.005a9.456 9.456 0 0 0-.57-.338l-6.358-3.672-.036 14.526 6.928 4.01c2.708 1.533 4.702 2.05 6.02 1.604.392-.178.731-.374.98-.695ZM228.838 86.88l-.036 12.37 5.949 3.439c.338.196.659.357.962.535 2.28 1.212 3.972 1.693 5.076 1.479 1.247-.285 1.888-1.568 1.888-3.832 0-2.139-.659-4.046-2.048-5.774-1.087-1.39-2.726-2.78-4.898-4.171-.481-.32-.998-.624-1.532-.945l-5.361-3.1Z"/></svg>